%TF.GenerationSoftware,KiCad,Pcbnew,9.0.2*%
%TF.CreationDate,2025-07-20T18:47:43+10:00*%
%TF.ProjectId,M09A_GroupG_pcb,4d303941-5f47-4726-9f75-70475f706362,rev?*%
%TF.SameCoordinates,Original*%
%TF.FileFunction,Copper,L4,Bot*%
%TF.FilePolarity,Positive*%
%FSLAX46Y46*%
G04 Gerber Fmt 4.6, Leading zero omitted, Abs format (unit mm)*
G04 Created by KiCad (PCBNEW 9.0.2) date 2025-07-20 18:47:43*
%MOMM*%
%LPD*%
G01*
G04 APERTURE LIST*
%TA.AperFunction,ComponentPad*%
%ADD10C,1.950000*%
%TD*%
%TA.AperFunction,ComponentPad*%
%ADD11R,1.700000X1.700000*%
%TD*%
%TA.AperFunction,ComponentPad*%
%ADD12C,1.700000*%
%TD*%
%TA.AperFunction,ComponentPad*%
%ADD13C,0.499999*%
%TD*%
%TA.AperFunction,ComponentPad*%
%ADD14C,1.270000*%
%TD*%
%TA.AperFunction,ComponentPad*%
%ADD15C,0.800000*%
%TD*%
%TA.AperFunction,ComponentPad*%
%ADD16C,6.400000*%
%TD*%
%TA.AperFunction,HeatsinkPad*%
%ADD17C,0.500000*%
%TD*%
%TA.AperFunction,HeatsinkPad*%
%ADD18R,3.400000X9.700000*%
%TD*%
%TA.AperFunction,ComponentPad*%
%ADD19O,2.100000X1.000000*%
%TD*%
%TA.AperFunction,ComponentPad*%
%ADD20O,1.800000X1.000000*%
%TD*%
%TA.AperFunction,ComponentPad*%
%ADD21C,0.400000*%
%TD*%
%TA.AperFunction,ViaPad*%
%ADD22C,0.600000*%
%TD*%
%TA.AperFunction,ViaPad*%
%ADD23C,0.500000*%
%TD*%
%TA.AperFunction,Conductor*%
%ADD24C,0.200000*%
%TD*%
%TA.AperFunction,Conductor*%
%ADD25C,0.250000*%
%TD*%
%TA.AperFunction,Conductor*%
%ADD26C,0.400000*%
%TD*%
%ADD27C,0.300000*%
%ADD28C,0.350000*%
%ADD29C,0.203200*%
%ADD30C,0.200000*%
%ADD31O,1.700000X0.600000*%
%ADD32O,1.400000X0.600000*%
G04 APERTURE END LIST*
D10*
%TO.P,J7,1*%
%TO.N,Net-(C58-Pad1)*%
X143473098Y-135986777D03*
%TO.P,J7,2*%
%TO.N,Net-(C57-Pad1)*%
X143473098Y-130986777D03*
%TD*%
%TO.P,J5,1,Pin_1*%
%TO.N,+BATT*%
X54800000Y-133600000D03*
%TO.P,J5,2,Pin_2*%
%TO.N,-BATT*%
X54800000Y-138600000D03*
%TD*%
D11*
%TO.P,J15,1,Pin_1*%
%TO.N,VBUS*%
X69200000Y-112400000D03*
D12*
%TO.P,J15,2,Pin_2*%
%TO.N,GND*%
X71740000Y-112400000D03*
%TD*%
D11*
%TO.P,J11,1,Pin_1*%
%TO.N,/Main Compute Module/INT*%
X75370000Y-93150000D03*
D12*
%TO.P,J11,2,Pin_2*%
%TO.N,/Main Compute Module/GPIO7*%
X77910000Y-93150000D03*
%TO.P,J11,3,Pin_3*%
%TO.N,/Main Compute Module/GPIO6*%
X80450000Y-93150000D03*
%TO.P,J11,4,Pin_4*%
%TO.N,/Main Compute Module/GPIO9*%
X82990000Y-93150000D03*
%TO.P,J11,5,Pin_5*%
%TO.N,/Main Compute Module/GPIO5*%
X85530000Y-93150000D03*
%TD*%
D11*
%TO.P,J14,1,Pin_1*%
%TO.N,/Main Compute Module/GPIO18*%
X56400000Y-94575000D03*
D12*
%TO.P,J14,2,Pin_2*%
%TO.N,GND*%
X56400000Y-92035000D03*
%TD*%
D13*
%TO.P,U5,V,SW_VIA*%
%TO.N,Net-(U5-SW)*%
X86904550Y-149756662D03*
%TD*%
D14*
%TO.P,R24,1*%
%TO.N,GND*%
X63650000Y-79200000D03*
%TO.P,R24,2*%
%TO.N,/Main Compute Module/GPIO4*%
X63650000Y-81740000D03*
%TO.P,R24,3*%
%TO.N,+3V3*%
X63650000Y-84280000D03*
%TD*%
D15*
%TO.P,H3,1,1*%
%TO.N,GND*%
X143802944Y-154397056D03*
X144505888Y-152700000D03*
X144505888Y-156094112D03*
X146202944Y-151997056D03*
D16*
X146202944Y-154397056D03*
D15*
X146202944Y-156797056D03*
X147900000Y-152700000D03*
X147900000Y-156094112D03*
X148602944Y-154397056D03*
%TD*%
D10*
%TO.P,J3,1*%
%TO.N,Net-(C16-Pad1)*%
X143473098Y-73300000D03*
%TO.P,J3,2*%
%TO.N,Net-(C15-Pad1)*%
X143473098Y-68300000D03*
%TD*%
D11*
%TO.P,J1,1,Pin_1*%
%TO.N,GND*%
X107780000Y-62050000D03*
D12*
%TO.P,J1,2,Pin_2*%
%TO.N,/Main Compute Module/RXD0*%
X105240000Y-62050000D03*
%TO.P,J1,3,Pin_3*%
%TO.N,/Main Compute Module/TXD0*%
X102700000Y-62050000D03*
%TD*%
D15*
%TO.P,H2,1,1*%
%TO.N,GND*%
X143802944Y-62000000D03*
X144505888Y-60302944D03*
X144505888Y-63697056D03*
X146202944Y-59600000D03*
D16*
X146202944Y-62000000D03*
D15*
X146202944Y-64400000D03*
X147900000Y-60302944D03*
X147900000Y-63697056D03*
X148602944Y-62000000D03*
%TD*%
D10*
%TO.P,J8,1*%
%TO.N,Net-(C59-Pad1)*%
X143473098Y-147700000D03*
%TO.P,J8,2*%
%TO.N,Net-(C60-Pad1)*%
X143473098Y-142700000D03*
%TD*%
%TO.P,J10,1*%
%TO.N,Net-(C77-Pad1)*%
X143473098Y-113486777D03*
%TO.P,J10,2*%
%TO.N,Net-(C78-Pad1)*%
X143473098Y-108486777D03*
%TD*%
D15*
%TO.P,H1,1,1*%
%TO.N,GND*%
X51400000Y-62000000D03*
X52102944Y-60302944D03*
X52102944Y-63697056D03*
X53800000Y-59600000D03*
D16*
X53800000Y-62000000D03*
D15*
X53800000Y-64400000D03*
X55497056Y-60302944D03*
X55497056Y-63697056D03*
X56200000Y-62000000D03*
%TD*%
D11*
%TO.P,J13,1,Pin_1*%
%TO.N,/Main Compute Module/GPIO17*%
X52800000Y-94575000D03*
D12*
%TO.P,J13,2,Pin_2*%
%TO.N,GND*%
X52800000Y-92035000D03*
%TD*%
D11*
%TO.P,J16,1,Pin_1*%
%TO.N,Net-(D3-K)*%
X76800000Y-123200000D03*
D12*
%TO.P,J16,2,Pin_2*%
%TO.N,V_IN*%
X76800000Y-125740000D03*
%TD*%
D11*
%TO.P,J19,1,Pin_1*%
%TO.N,GND*%
X87350000Y-102760000D03*
D12*
%TO.P,J19,2,Pin_2*%
X87350000Y-105300000D03*
%TD*%
D10*
%TO.P,J4,1*%
%TO.N,Net-(C17-Pad1)*%
X143473098Y-84769360D03*
%TO.P,J4,2*%
%TO.N,Net-(C18-Pad1)*%
X143473098Y-79769360D03*
%TD*%
D17*
%TO.P,U1,29,EP*%
%TO.N,GND*%
X114776600Y-71192583D03*
X114776600Y-72506869D03*
X114776600Y-73821154D03*
X114776600Y-75135440D03*
X114776600Y-76449726D03*
X114776600Y-77764012D03*
X114776600Y-79078297D03*
X114776600Y-80392583D03*
X116226600Y-71192583D03*
X116226600Y-72506869D03*
X116226600Y-73821154D03*
X116226600Y-75135440D03*
D18*
X116226600Y-75792583D03*
D17*
X116226600Y-76449726D03*
X116226600Y-77764012D03*
X116226600Y-79078297D03*
X116226600Y-80392583D03*
X117676600Y-71192583D03*
X117676600Y-72506869D03*
X117676600Y-73821154D03*
X117676600Y-75135440D03*
X117676600Y-76449726D03*
X117676600Y-77764012D03*
X117676600Y-79078297D03*
X117676600Y-80392583D03*
%TD*%
%TO.P,U8,29,EP*%
%TO.N,GND*%
X114775000Y-135410000D03*
X114775000Y-136724286D03*
X114775000Y-138038571D03*
X114775000Y-139352857D03*
X114775000Y-140667143D03*
X114775000Y-141981429D03*
X114775000Y-143295714D03*
X114775000Y-144610000D03*
X116225000Y-135410000D03*
X116225000Y-136724286D03*
X116225000Y-138038571D03*
X116225000Y-139352857D03*
D18*
X116225000Y-140010000D03*
D17*
X116225000Y-140667143D03*
X116225000Y-141981429D03*
X116225000Y-143295714D03*
X116225000Y-144610000D03*
X117675000Y-135410000D03*
X117675000Y-136724286D03*
X117675000Y-138038571D03*
X117675000Y-139352857D03*
X117675000Y-140667143D03*
X117675000Y-141981429D03*
X117675000Y-143295714D03*
X117675000Y-144610000D03*
%TD*%
D11*
%TO.P,J2,1,Pin_1*%
%TO.N,/Main Compute Module/GPIO39*%
X105140000Y-65750000D03*
D12*
%TO.P,J2,2,Pin_2*%
%TO.N,/Main Compute Module/GPIO40*%
X102600000Y-65750000D03*
%TO.P,J2,3,Pin_3*%
%TO.N,/Main Compute Module/GPIO41*%
X100060000Y-65750000D03*
%TO.P,J2,4,Pin_4*%
%TO.N,/Main Compute Module/GPIO42*%
X97520000Y-65750000D03*
%TD*%
D19*
%TO.P,J6,SH1,SHELL_GND*%
%TO.N,GND*%
X57080000Y-103416750D03*
%TO.P,J6,SH2,SHELL_GND__1*%
X57080000Y-112056750D03*
D20*
%TO.P,J6,SH3,SHELL_GND__2*%
X52900000Y-103416750D03*
%TO.P,J6,SH4,SHELL_GND__3*%
X52900000Y-112056750D03*
%TD*%
D10*
%TO.P,J9,1*%
%TO.N,Net-(C76-Pad1)*%
X143473098Y-100486777D03*
%TO.P,J9,2*%
%TO.N,Net-(C75-Pad1)*%
X143473098Y-95486777D03*
%TD*%
D11*
%TO.P,J12,1,Pin_1*%
%TO.N,/Audio Amplifier 1/LRCLK*%
X98100000Y-95220000D03*
D12*
%TO.P,J12,2,Pin_2*%
%TO.N,/Audio Amplifier 1/SCLK*%
X98100000Y-97760000D03*
%TO.P,J12,3,Pin_3*%
%TO.N,/Audio Amplifier 1/SDIN*%
X98100000Y-100300000D03*
%TO.P,J12,4,Pin_4*%
%TO.N,/Audio Amplifier 1/SDA*%
X98100000Y-102840000D03*
%TO.P,J12,5,Pin_5*%
%TO.N,/Audio Amplifier 1/SCL*%
X98100000Y-105380000D03*
%TO.P,J12,6,Pin_6*%
%TO.N,/Audio Amplifier 1/PDN\u005C*%
X98100000Y-107920000D03*
%TD*%
D21*
%TO.P,U7,41_10,GND_VIA*%
%TO.N,GND*%
X80400000Y-66660000D03*
%TO.P,U7,41_11,GND_VIA*%
X79000000Y-66660000D03*
%TO.P,U7,41_12,GND_VIA*%
X81800000Y-66660000D03*
%TO.P,U7,41_13,GND_VIA*%
X79000000Y-68060000D03*
%TO.P,U7,41_14,GND_VIA*%
X80400000Y-68060000D03*
%TO.P,U7,41_15,GND_VIA*%
X81800000Y-68060000D03*
%TO.P,U7,41_16,GND_VIA*%
X79700000Y-65960000D03*
%TO.P,U7,41_17,GND_VIA*%
X81100000Y-65960000D03*
%TO.P,U7,41_18,GND_VIA*%
X79700000Y-67360000D03*
%TO.P,U7,41_19,GND_VIA*%
X81100000Y-67360000D03*
%TO.P,U7,41_20,GND_VIA*%
X79700000Y-68760000D03*
%TO.P,U7,41_21,GND_VIA*%
X81100000Y-68760000D03*
%TD*%
D17*
%TO.P,U9,29,EP*%
%TO.N,GND*%
X114775000Y-99910000D03*
X114775000Y-101224286D03*
X114775000Y-102538571D03*
X114775000Y-103852857D03*
X114775000Y-105167143D03*
X114775000Y-106481429D03*
X114775000Y-107795714D03*
X114775000Y-109110000D03*
X116225000Y-99910000D03*
X116225000Y-101224286D03*
X116225000Y-102538571D03*
X116225000Y-103852857D03*
D18*
X116225000Y-104510000D03*
D17*
X116225000Y-105167143D03*
X116225000Y-106481429D03*
X116225000Y-107795714D03*
X116225000Y-109110000D03*
X117675000Y-99910000D03*
X117675000Y-101224286D03*
X117675000Y-102538571D03*
X117675000Y-103852857D03*
X117675000Y-105167143D03*
X117675000Y-106481429D03*
X117675000Y-107795714D03*
X117675000Y-109110000D03*
%TD*%
D11*
%TO.P,J17,1,Pin_1*%
%TO.N,+3V3*%
X84662500Y-115028000D03*
D12*
%TO.P,J17,2,Pin_2*%
%TO.N,GND*%
X84662500Y-112488000D03*
%TD*%
D11*
%TO.P,J18,1,Pin_1*%
%TO.N,/Audio Amplifier 1/PVDD_4V5*%
X101200000Y-148600000D03*
D12*
%TO.P,J18,2,Pin_2*%
%TO.N,GND*%
X101200000Y-151140000D03*
%TD*%
D15*
%TO.P,H4,1,1*%
%TO.N,GND*%
X51400000Y-154397056D03*
X52102944Y-152700000D03*
X52102944Y-156094112D03*
X53800000Y-151997056D03*
D16*
X53800000Y-154397056D03*
D15*
X53800000Y-156797056D03*
X55497056Y-152700000D03*
X55497056Y-156094112D03*
X56200000Y-154397056D03*
%TD*%
D22*
%TO.N,/Audio Amplifier 1/PVDD_4V5*%
X117900000Y-153200000D03*
X120100000Y-156600000D03*
X118550000Y-155050000D03*
X120100000Y-155200000D03*
X118600000Y-156600000D03*
%TO.N,GND*%
X113900000Y-66250000D03*
X84250000Y-137600000D03*
X110550000Y-147000000D03*
%TO.N,/Audio Amplifier 1/PVDD_4V5*%
X120500000Y-69800000D03*
X120500000Y-68400000D03*
X120600000Y-121000000D03*
X101200000Y-145200000D03*
X109400000Y-154500000D03*
X120400000Y-129000000D03*
X122100000Y-124900000D03*
X122100000Y-119600000D03*
X122400000Y-89300000D03*
X104500000Y-149700000D03*
X94600000Y-146500000D03*
X117600000Y-89300000D03*
X105300000Y-89800000D03*
X93300000Y-146500000D03*
X120400000Y-115500000D03*
X96600000Y-149100000D03*
X97900000Y-149100000D03*
X106600000Y-86000000D03*
X121900000Y-151100000D03*
X98500000Y-145200000D03*
X106900000Y-152100000D03*
X118900000Y-129000000D03*
X120500000Y-93400000D03*
X119000000Y-113400000D03*
X120300000Y-147500000D03*
X109200000Y-87300000D03*
X102900000Y-149200000D03*
X120303268Y-150500000D03*
X119100000Y-119600000D03*
X120161563Y-64939740D03*
X109900000Y-86000000D03*
X122300000Y-93400000D03*
X120500000Y-66900000D03*
X90500000Y-147900000D03*
X120400000Y-133900000D03*
X113300000Y-155500000D03*
X95900000Y-145200000D03*
X119000000Y-131100000D03*
X94000000Y-149100000D03*
X120500000Y-81900000D03*
X114100000Y-87300000D03*
X120500000Y-83300000D03*
X119000000Y-149000000D03*
X115800000Y-89300000D03*
X123800000Y-63600000D03*
X98500000Y-143900000D03*
X101300000Y-146500000D03*
X89200000Y-155200000D03*
X108100000Y-86000000D03*
X120400000Y-110500000D03*
X119100000Y-124900000D03*
X103900000Y-87000000D03*
X98700000Y-147900000D03*
X94600000Y-145200000D03*
X109200000Y-90700000D03*
X111500000Y-155500000D03*
X120400000Y-111900000D03*
X99800000Y-146500000D03*
X97200000Y-145200000D03*
X99500000Y-149200000D03*
X120600000Y-123500000D03*
X103900000Y-89800000D03*
X114100000Y-89100000D03*
X105300000Y-91100000D03*
X121900000Y-115500000D03*
X110900000Y-87300000D03*
X120400000Y-95600000D03*
X110900000Y-89100000D03*
X116900000Y-156400000D03*
X120400000Y-149000000D03*
X120500000Y-86400000D03*
X112500000Y-87300000D03*
X108100000Y-153300000D03*
X92000000Y-146500000D03*
X120400000Y-98500000D03*
X117500000Y-91000000D03*
X121900000Y-154900000D03*
X118300000Y-64900000D03*
X104000000Y-147900000D03*
X105300000Y-87000000D03*
X120400000Y-97100000D03*
X120500000Y-84800000D03*
X122100000Y-123500000D03*
X120300000Y-146100000D03*
X97200000Y-143900000D03*
X106500000Y-91800000D03*
X117600000Y-87900000D03*
X117400000Y-86400000D03*
X103900000Y-88400000D03*
X122100000Y-121000000D03*
X99800000Y-145200000D03*
X117500000Y-63400000D03*
X119300000Y-87900000D03*
X115800000Y-87500000D03*
X119000000Y-66900000D03*
X105300000Y-88400000D03*
X120600000Y-119600000D03*
X119100000Y-121000000D03*
X119000000Y-86400000D03*
X119100000Y-123500000D03*
X118900000Y-115500000D03*
X118900000Y-95600000D03*
X95900000Y-146500000D03*
X92700000Y-149100000D03*
X118900000Y-151100000D03*
X120400000Y-131100000D03*
X105800000Y-150900000D03*
X98500000Y-146500000D03*
X121800000Y-65000000D03*
X120600000Y-124900000D03*
X117600000Y-92500000D03*
X95300000Y-149100000D03*
X94600000Y-143900000D03*
X119000000Y-84800000D03*
X93300000Y-145200000D03*
X120400000Y-113400000D03*
X120900000Y-87900000D03*
X108000000Y-91800000D03*
X90100000Y-149100000D03*
X109500000Y-89200000D03*
X117100000Y-154700000D03*
X91400000Y-149100000D03*
X120400000Y-132500000D03*
X119300000Y-89300000D03*
X122400000Y-95600000D03*
X119000000Y-93400000D03*
X95900000Y-143900000D03*
X120900000Y-89300000D03*
X99800000Y-143900000D03*
X112500000Y-89100000D03*
X97200000Y-146500000D03*
X115300000Y-155600000D03*
X121900000Y-129000000D03*
%TO.N,GND*%
X126400000Y-69700000D03*
X79800000Y-63900000D03*
X112600000Y-109700000D03*
X73200000Y-130600000D03*
X77875000Y-67942976D03*
X111500000Y-97400000D03*
X135600000Y-82200000D03*
X110100000Y-111400000D03*
X81800000Y-62600000D03*
X74700000Y-130600000D03*
X111200000Y-93400000D03*
X71700000Y-131900000D03*
X117500000Y-131200000D03*
X84600000Y-59800000D03*
X128500000Y-133400000D03*
X116700000Y-134000000D03*
X82250000Y-123300000D03*
X134000000Y-145600000D03*
X113000000Y-93400000D03*
D23*
X58700000Y-70000000D03*
D22*
X68800000Y-131500000D03*
X113600000Y-119400000D03*
X116700000Y-132400000D03*
X135700000Y-98100000D03*
X112400000Y-114200000D03*
X109200000Y-131100000D03*
X114900000Y-132400000D03*
X116600000Y-98400000D03*
X112400000Y-130300000D03*
X94800000Y-151700000D03*
X77500000Y-66500000D03*
X88900000Y-59800000D03*
X124500000Y-135700000D03*
X132300000Y-98000000D03*
X130500000Y-146500000D03*
X97000000Y-59640000D03*
X109900000Y-68700000D03*
X87500000Y-59800000D03*
X80400000Y-62600000D03*
X135600000Y-146400000D03*
X84400000Y-123950000D03*
D23*
X62600000Y-119700000D03*
D22*
X109500000Y-82000000D03*
D23*
X59900000Y-69100000D03*
D22*
X114250000Y-67800000D03*
X134100000Y-98900000D03*
X122300000Y-102400000D03*
X110600000Y-63800000D03*
X87500000Y-62600000D03*
X113000000Y-95200000D03*
X100150000Y-59640000D03*
X110900000Y-84700000D03*
X87112500Y-126278000D03*
X108700000Y-102600000D03*
X80400000Y-59800000D03*
X117100000Y-128100000D03*
X66700000Y-98000000D03*
X53100000Y-86700000D03*
X68800000Y-132900000D03*
X97400000Y-154400000D03*
X109200000Y-126100000D03*
X115400000Y-128900000D03*
X86900000Y-63900000D03*
X130400000Y-82300000D03*
X112700000Y-146700000D03*
X77215000Y-96642500D03*
X124400000Y-80100000D03*
X122200000Y-77900000D03*
X112400000Y-98700000D03*
X105100000Y-81700000D03*
X126400000Y-98400000D03*
X115300000Y-151200000D03*
X79000000Y-62600000D03*
X110000000Y-151750000D03*
X117100000Y-118300000D03*
X111400000Y-68700000D03*
X109000000Y-148650000D03*
X112300000Y-149800000D03*
X115550000Y-66650000D03*
X113600000Y-121000000D03*
D23*
X59200000Y-112200000D03*
D22*
X67730426Y-60642377D03*
X109200000Y-95200000D03*
X98800000Y-154400000D03*
X85400000Y-156400000D03*
X116500000Y-93400000D03*
X74600000Y-59800000D03*
X109200000Y-118000000D03*
X113600000Y-125100000D03*
X109200000Y-122900000D03*
X84600000Y-62600000D03*
X122200000Y-106600000D03*
X73200000Y-131900000D03*
D23*
X62900000Y-114100000D03*
D22*
X68300000Y-98000000D03*
X115000000Y-97700000D03*
X108300000Y-84700000D03*
X89700000Y-124300000D03*
X96100000Y-151700000D03*
X104950000Y-59640000D03*
X69600000Y-65300000D03*
X70200000Y-134700000D03*
X74700000Y-133300000D03*
X117150000Y-151337171D03*
X68300000Y-126400000D03*
X116600000Y-96800000D03*
X114900000Y-65100000D03*
X85400000Y-63900000D03*
X70200000Y-131900000D03*
X112500000Y-145300000D03*
X128600000Y-111000000D03*
X84246250Y-138200000D03*
X86100000Y-144800000D03*
D23*
X64100000Y-121300000D03*
D22*
X116000000Y-149800000D03*
X116500000Y-69800000D03*
X135600000Y-69400000D03*
X106300000Y-84700000D03*
X98800000Y-153100000D03*
X85812500Y-124978000D03*
X71700000Y-134700000D03*
X108800000Y-73900000D03*
X86100000Y-59800000D03*
X84700000Y-65200000D03*
X132300000Y-82300000D03*
X111450000Y-64900000D03*
X112700000Y-70200000D03*
X112500000Y-134300000D03*
X109200000Y-93400000D03*
X130400000Y-133400000D03*
D23*
X62900000Y-112400000D03*
D22*
X116600000Y-83500000D03*
X90300000Y-150400000D03*
D23*
X61000000Y-104000000D03*
D22*
X135600000Y-110900000D03*
X109200000Y-121300000D03*
D23*
X64100000Y-123000000D03*
D22*
X109200000Y-129500000D03*
X134000000Y-147300000D03*
X114800000Y-93400000D03*
X132400000Y-111000000D03*
X128600000Y-146500000D03*
X89600000Y-144800000D03*
X116600000Y-81900000D03*
X81200000Y-61100000D03*
X83200000Y-65200000D03*
X134100000Y-134400000D03*
X78300000Y-61100000D03*
X134000000Y-111800000D03*
X134000000Y-110100000D03*
X96100000Y-154400000D03*
D23*
X57700000Y-69100000D03*
D22*
X117400000Y-148900000D03*
X111300000Y-82900000D03*
X126300000Y-146100000D03*
X134000000Y-81400000D03*
X113600000Y-96600000D03*
X113600000Y-123500000D03*
D23*
X64100000Y-118200000D03*
D22*
X110900000Y-131400000D03*
X109200000Y-116400000D03*
X116300000Y-64400000D03*
X85812500Y-126278000D03*
X128500000Y-82300000D03*
X110900000Y-132700000D03*
X134100000Y-97200000D03*
X108500000Y-138000000D03*
X112400000Y-66000000D03*
X81525000Y-96350000D03*
X111700000Y-128900000D03*
X115500000Y-121000000D03*
X62397880Y-105348713D03*
X83200000Y-66500000D03*
X77500000Y-65200000D03*
X100300000Y-154400000D03*
X122200000Y-142100000D03*
X109000000Y-146950000D03*
X111800000Y-119400000D03*
X114200000Y-114200000D03*
X88412500Y-126278000D03*
X132400000Y-146500000D03*
X114800000Y-95200000D03*
X115500000Y-125100000D03*
X82600000Y-63900000D03*
D23*
X59700000Y-103200000D03*
D22*
X81800000Y-59800000D03*
X89700000Y-123000000D03*
X98550000Y-59640000D03*
X116500000Y-110500000D03*
X114100000Y-149800000D03*
X82890000Y-96450000D03*
X98800000Y-151700000D03*
X111800000Y-123500000D03*
X103800000Y-81400000D03*
X134100000Y-68500000D03*
X115500000Y-119400000D03*
X113500000Y-128900000D03*
X124500000Y-71500000D03*
X114400000Y-82700000D03*
X84400000Y-125250000D03*
X97400000Y-151700000D03*
X86900000Y-61100000D03*
X130300000Y-69200000D03*
X109200000Y-119600000D03*
X83200000Y-67800000D03*
X135700000Y-133600000D03*
X94800000Y-153100000D03*
X134000000Y-83100000D03*
X128400000Y-69200000D03*
X114200000Y-130300000D03*
X96100000Y-153100000D03*
X74700000Y-134700000D03*
X85812500Y-123678000D03*
X117100000Y-124400000D03*
X87112500Y-124978000D03*
X71500000Y-114900000D03*
X113500000Y-115600000D03*
X104900000Y-79953223D03*
X70200000Y-133300000D03*
X69900000Y-98000000D03*
X116100000Y-130300000D03*
X110400000Y-67400000D03*
X71800000Y-59700000D03*
D23*
X59000000Y-113900000D03*
D22*
X126300000Y-110600000D03*
X116500000Y-68200000D03*
X115200000Y-69000000D03*
D23*
X62000000Y-68500000D03*
D22*
X113900000Y-84300000D03*
X108600000Y-97400000D03*
X117100000Y-116400000D03*
X108800000Y-112600000D03*
X132300000Y-133400000D03*
X84700000Y-66500000D03*
X111200000Y-95200000D03*
X134100000Y-132700000D03*
X82600000Y-61100000D03*
X115500000Y-123500000D03*
X126400000Y-133900000D03*
X85212500Y-121902054D03*
X73552749Y-114959100D03*
X111800000Y-121000000D03*
X116100000Y-114200000D03*
X88412500Y-124978000D03*
X111600000Y-151200000D03*
X114300000Y-112200000D03*
D23*
X69500000Y-120000000D03*
D22*
X78300000Y-63900000D03*
X130500000Y-111000000D03*
X109200000Y-127800000D03*
X134100000Y-70200000D03*
X112800000Y-111100000D03*
X84000000Y-61100000D03*
X103350000Y-59640000D03*
X132200000Y-69200000D03*
X109200000Y-124500000D03*
D23*
X69500000Y-121500000D03*
D22*
X53100000Y-82700000D03*
X111700000Y-115600000D03*
X116400000Y-146100000D03*
X79800000Y-61100000D03*
X124400000Y-108800000D03*
X128500000Y-98000000D03*
X124500000Y-100200000D03*
X109200000Y-114800000D03*
X93700000Y-59640000D03*
X97400000Y-153100000D03*
X77500000Y-59800000D03*
X117000000Y-95200000D03*
X88412500Y-123678000D03*
X60700000Y-110039250D03*
X71700000Y-133300000D03*
X74700000Y-131900000D03*
X79600000Y-100200000D03*
D23*
X64100000Y-119700000D03*
D22*
X117100000Y-120100000D03*
X79000000Y-59800000D03*
X92200000Y-59640000D03*
X115400000Y-115600000D03*
X64500000Y-126500000D03*
D23*
X58700000Y-68200000D03*
D22*
X101800000Y-59640000D03*
X71700000Y-130600000D03*
D23*
X62600000Y-121300000D03*
D22*
X117200000Y-66900000D03*
X122300000Y-137900000D03*
X130400000Y-98000000D03*
X70200000Y-130600000D03*
X101800000Y-153100000D03*
X76900000Y-61100000D03*
X110600000Y-92000000D03*
X110100000Y-97400000D03*
X94800000Y-154400000D03*
X81200000Y-63900000D03*
X109100000Y-150400000D03*
X83200000Y-62600000D03*
X58300000Y-83300000D03*
X111100000Y-112800000D03*
X73200000Y-134700000D03*
X76100000Y-59800000D03*
X86100000Y-62600000D03*
X83200000Y-59800000D03*
X112600000Y-81600000D03*
X105200000Y-83600000D03*
X100300000Y-153100000D03*
X73200000Y-133300000D03*
X117500000Y-113300000D03*
X106400000Y-59640000D03*
X95350000Y-59640000D03*
X85400000Y-61100000D03*
X84000000Y-63900000D03*
X113900000Y-134400000D03*
X116400000Y-147700000D03*
X116500000Y-112100000D03*
X111800000Y-125100000D03*
X110100000Y-145400000D03*
X117100000Y-126200000D03*
X77500000Y-62600000D03*
X124400000Y-144300000D03*
X122300000Y-73700000D03*
X112500000Y-133000000D03*
X109200000Y-132700000D03*
X88300000Y-61100000D03*
X87112500Y-123678000D03*
X103800000Y-83100000D03*
X111000000Y-148650000D03*
X109500000Y-83300000D03*
X114600000Y-147700000D03*
X126300000Y-81900000D03*
X58300000Y-86400000D03*
%TO.N,/Audio Amplifier 1/SDA*%
X97650000Y-80000000D03*
X99800000Y-119000000D03*
X88200000Y-80150000D03*
%TO.N,/Audio Amplifier 1/SCL*%
X85250000Y-80350000D03*
X96450000Y-112450000D03*
X97700000Y-81700000D03*
%TO.N,/Audio Amplifier 1/PDN\u005C*%
X98100000Y-84850000D03*
X86800000Y-87250000D03*
%TO.N,/Audio Amplifier 1/SCLK*%
X102300000Y-113800000D03*
%TO.N,/Audio Amplifier 1/SDIN*%
X101100000Y-115800000D03*
X90250000Y-78850000D03*
X97400000Y-77150000D03*
%TO.N,/Audio Amplifier 1/LRCLK*%
X103700000Y-117100000D03*
X100200000Y-73750000D03*
X92650000Y-62650000D03*
%TO.N,VBUS*%
X57800000Y-120300000D03*
X64600000Y-115000000D03*
%TO.N,V_IN*%
X88850000Y-147100000D03*
X87200000Y-147300000D03*
%TO.N,+3V3*%
X107400000Y-134600000D03*
X109500000Y-72200000D03*
X78850000Y-82475000D03*
X86762500Y-116128000D03*
X81229167Y-116128000D03*
X71800000Y-61300000D03*
X111156413Y-100925000D03*
X107700000Y-99100000D03*
X81525000Y-97950000D03*
X88129166Y-117428000D03*
X89350000Y-83650000D03*
X107700000Y-69900000D03*
X89495833Y-120228000D03*
X78450000Y-100200000D03*
X89495833Y-117428000D03*
X60300000Y-83400000D03*
X82595833Y-114828000D03*
X82595833Y-116128000D03*
X109300000Y-100925000D03*
X80946250Y-133258750D03*
X81229167Y-114828000D03*
X86762500Y-114828000D03*
X66400000Y-63900000D03*
X65500000Y-68400000D03*
X109600000Y-136400000D03*
X89495833Y-118828000D03*
X74601000Y-61400000D03*
X89495833Y-116128000D03*
X87600000Y-119250000D03*
X85395833Y-117428000D03*
X88129166Y-116128000D03*
X67300000Y-62100000D03*
X84650000Y-119250000D03*
X88129166Y-114828000D03*
X111300000Y-136400000D03*
X111300000Y-72200000D03*
X86762500Y-117428000D03*
X86250000Y-119250000D03*
X83962500Y-117428000D03*
X60300000Y-86100000D03*
X82815000Y-97950000D03*
X81229167Y-117428000D03*
X82595833Y-117428000D03*
%TO.N,/Main Compute Module/GPIO0*%
X65586459Y-65686459D03*
X88900000Y-75250000D03*
%TO.N,/Main Compute Module/INT*%
X76032762Y-74750000D03*
%TO.N,/Main Compute Module/GPIO5*%
X82925000Y-74275000D03*
%TO.N,/Main Compute Module/GPIO14*%
X83275000Y-79525000D03*
X79550000Y-88150000D03*
%TO.N,/Main Compute Module/GPIO15*%
X75000000Y-69500000D03*
X75100000Y-79450000D03*
%TO.N,/Main Compute Module/GPIO16*%
X74300000Y-81150000D03*
X74450002Y-71450000D03*
%TO.N,/Audio Amplifier 1/ADR{slash}FAULT\u005C*%
X92600000Y-60900000D03*
X103700000Y-71250000D03*
%TO.N,/Audio Amplifier 2/ADR{slash}FAULT\u005C*%
X105600000Y-130500000D03*
X89550000Y-95450000D03*
%TO.N,/Audio Amplifier 3/ADR{slash}FAULT\u005C*%
X86150000Y-83900000D03*
X98200000Y-90100000D03*
%TO.N,/Main Compute Module/GPIO7*%
X76750000Y-71950000D03*
%TO.N,/Main Compute Module/GPIO12*%
X81250000Y-78900000D03*
X79000000Y-86300000D03*
%TO.N,/Main Compute Module/GPIO6*%
X77950000Y-73950000D03*
%TD*%
D24*
%TO.N,/Audio Amplifier 1/PVDD_4V5*%
X89200000Y-155200000D02*
X91400000Y-153000000D01*
X91400000Y-153000000D02*
X91400000Y-149100000D01*
D25*
%TO.N,/Audio Amplifier 1/SDA*%
X99800000Y-119000000D02*
X99800000Y-104540000D01*
X97325000Y-80325000D02*
X88375000Y-80325000D01*
X97650000Y-80000000D02*
X97325000Y-80325000D01*
X88375000Y-80325000D02*
X88200000Y-80150000D01*
X99800000Y-104540000D02*
X98100000Y-102840000D01*
%TO.N,/Audio Amplifier 1/SCL*%
X86550000Y-81650000D02*
X85250000Y-80350000D01*
X97650000Y-81650000D02*
X86550000Y-81650000D01*
X96450000Y-107600000D02*
X98100000Y-105950000D01*
X96450000Y-112450000D02*
X96450000Y-107600000D01*
X98100000Y-105950000D02*
X98100000Y-105380000D01*
X97700000Y-81700000D02*
X97650000Y-81650000D01*
%TO.N,/Audio Amplifier 1/PDN\u005C*%
X98100000Y-84850000D02*
X95700000Y-87250000D01*
X95700000Y-87250000D02*
X86800000Y-87250000D01*
%TO.N,/Audio Amplifier 1/SCLK*%
X102300000Y-101960000D02*
X98100000Y-97760000D01*
X102300000Y-113800000D02*
X102300000Y-101960000D01*
%TO.N,/Audio Amplifier 1/SDIN*%
X97400000Y-77150000D02*
X95700000Y-78850000D01*
X95700000Y-78850000D02*
X90250000Y-78850000D01*
X101100000Y-103300000D02*
X98100000Y-100300000D01*
X101100000Y-115800000D02*
X101100000Y-103300000D01*
%TO.N,/Audio Amplifier 1/LRCLK*%
X98100000Y-92800000D02*
X100150000Y-90750000D01*
X92650000Y-62650000D02*
X92650000Y-66550000D01*
X98100000Y-95220000D02*
X98100000Y-92800000D01*
X98120000Y-95220000D02*
X98100000Y-95220000D01*
X103700000Y-100800000D02*
X98120000Y-95220000D01*
X103700000Y-117100000D02*
X103700000Y-100800000D01*
X99775000Y-73675000D02*
X99900000Y-73800000D01*
X99850000Y-73750000D02*
X99775000Y-73675000D01*
X100150000Y-74050000D02*
X99900000Y-73800000D01*
X92650000Y-66550000D02*
X99775000Y-73675000D01*
X100200000Y-73750000D02*
X99850000Y-73750000D01*
X100150000Y-90750000D02*
X100150000Y-74050000D01*
D26*
%TO.N,VBUS*%
X57800000Y-120300000D02*
X63100000Y-115000000D01*
X63100000Y-115000000D02*
X64600000Y-115000000D01*
D25*
%TO.N,V_IN*%
X87200000Y-147300000D02*
X88650000Y-147300000D01*
X88650000Y-147300000D02*
X88850000Y-147100000D01*
%TO.N,/Main Compute Module/GPIO0*%
X86800000Y-73150000D02*
X88900000Y-75250000D01*
X80000000Y-73150000D02*
X86800000Y-73150000D01*
X65586459Y-65686459D02*
X66600000Y-66700000D01*
X73550000Y-66700000D02*
X80000000Y-73150000D01*
X66600000Y-66700000D02*
X73550000Y-66700000D01*
%TO.N,/Main Compute Module/INT*%
X75370000Y-93150000D02*
X75370000Y-90980000D01*
X75370000Y-90980000D02*
X76032762Y-90317238D01*
X76032762Y-90317238D02*
X76032762Y-74750000D01*
%TO.N,/Main Compute Module/GPIO5*%
X84300000Y-75650000D02*
X84300000Y-89200000D01*
X84300000Y-89200000D02*
X85530000Y-90430000D01*
X82925000Y-74275000D02*
X84300000Y-75650000D01*
X85530000Y-90430000D02*
X85530000Y-93150000D01*
%TO.N,/Main Compute Module/GPIO14*%
X81950000Y-85950000D02*
X81950000Y-80850000D01*
X81950000Y-80850000D02*
X83275000Y-79525000D01*
X79550000Y-88150000D02*
X79750000Y-88150000D01*
X79750000Y-88150000D02*
X81950000Y-85950000D01*
%TO.N,/Main Compute Module/GPIO15*%
X75100000Y-79450000D02*
X75125002Y-79424998D01*
X75125002Y-69625002D02*
X75000000Y-69500000D01*
X75125002Y-79424998D02*
X75125002Y-69625002D01*
%TO.N,/Main Compute Module/GPIO16*%
X74300000Y-71600002D02*
X74450002Y-71450000D01*
X74300000Y-81150000D02*
X74300000Y-71600002D01*
%TO.N,/Main Compute Module/GPIO39*%
X105140000Y-66110000D02*
X105140000Y-65750000D01*
%TO.N,/Audio Amplifier 1/ADR{slash}FAULT\u005C*%
X100450000Y-71250000D02*
X95300000Y-66100000D01*
X95300000Y-63600000D02*
X92600000Y-60900000D01*
X95300000Y-66100000D02*
X95300000Y-63600000D01*
X103700000Y-71250000D02*
X100450000Y-71250000D01*
%TO.N,/Audio Amplifier 2/ADR{slash}FAULT\u005C*%
X91600000Y-100050000D02*
X91600000Y-116500000D01*
X89550000Y-95450000D02*
X89550000Y-98000000D01*
X91600000Y-116500000D02*
X105600000Y-130500000D01*
X89550000Y-98000000D02*
X91600000Y-100050000D01*
%TO.N,/Audio Amplifier 3/ADR{slash}FAULT\u005C*%
X87650000Y-90100000D02*
X86150000Y-88600000D01*
X86150000Y-88600000D02*
X86150000Y-83900000D01*
X98200000Y-90100000D02*
X87650000Y-90100000D01*
%TO.N,/Main Compute Module/GPIO7*%
X76988031Y-72188031D02*
X76750000Y-71950000D01*
X76988031Y-90338031D02*
X76988031Y-72188031D01*
X77910000Y-93150000D02*
X77910000Y-91260000D01*
X77910000Y-91260000D02*
X76988031Y-90338031D01*
%TO.N,/Main Compute Module/GPIO12*%
X81250000Y-78900000D02*
X81250000Y-84050000D01*
X81250000Y-84050000D02*
X79000000Y-86300000D01*
%TO.N,/Main Compute Module/GPIO6*%
X80450000Y-93150000D02*
X80450000Y-91300000D01*
X80450000Y-91300000D02*
X77950000Y-88800000D01*
X77950000Y-88800000D02*
X77950000Y-73950000D01*
%TD*%
%TA.AperFunction,Conductor*%
%TO.N,/Audio Amplifier 1/PVDD_4V5*%
G36*
X89555277Y-154714902D02*
G01*
X89685097Y-154844722D01*
X89688524Y-154852995D01*
X89687422Y-154857953D01*
X89455193Y-155354373D01*
X89448583Y-155360414D01*
X89439637Y-155360013D01*
X89438127Y-155359164D01*
X89201265Y-155202015D01*
X89197984Y-155198734D01*
X89040835Y-154961872D01*
X89039116Y-154953084D01*
X89044116Y-154945655D01*
X89045621Y-154944808D01*
X89542048Y-154712576D01*
X89550992Y-154712176D01*
X89555277Y-154714902D01*
G37*
%TD.AperFunction*%
%TD*%
%TA.AperFunction,Conductor*%
%TO.N,/Audio Amplifier 1/PVDD_4V5*%
G36*
X91680930Y-149155835D02*
G01*
X91688358Y-149160834D01*
X91690077Y-149169622D01*
X91689608Y-149171290D01*
X91502796Y-149686524D01*
X91496755Y-149693134D01*
X91491797Y-149694236D01*
X91308203Y-149694236D01*
X91299930Y-149690809D01*
X91297204Y-149686524D01*
X91249544Y-149555078D01*
X91110391Y-149171288D01*
X91110792Y-149162344D01*
X91117402Y-149156303D01*
X91119056Y-149155837D01*
X91397682Y-149099469D01*
X91402318Y-149099469D01*
X91680930Y-149155835D01*
G37*
%TD.AperFunction*%
%TD*%
%TA.AperFunction,Conductor*%
%TO.N,/Audio Amplifier 1/SDA*%
G36*
X99924699Y-118409191D02*
G01*
X99927583Y-118413940D01*
X100090315Y-118929062D01*
X100089539Y-118937983D01*
X100082682Y-118943743D01*
X100081478Y-118944054D01*
X99802320Y-119000530D01*
X99797680Y-119000530D01*
X99564553Y-118953366D01*
X99518520Y-118944053D01*
X99511092Y-118939054D01*
X99509373Y-118930266D01*
X99509680Y-118929075D01*
X99672417Y-118413939D01*
X99678177Y-118407083D01*
X99683574Y-118405764D01*
X99916426Y-118405764D01*
X99924699Y-118409191D01*
G37*
%TD.AperFunction*%
%TD*%
%TA.AperFunction,Conductor*%
%TO.N,/Audio Amplifier 1/SDA*%
G36*
X88375817Y-79907924D02*
G01*
X88376584Y-79908486D01*
X88736720Y-80196488D01*
X88741040Y-80204329D01*
X88741112Y-80205623D01*
X88741112Y-80438187D01*
X88737685Y-80446460D01*
X88729412Y-80449887D01*
X88729300Y-80449886D01*
X88155543Y-80444371D01*
X88147303Y-80440865D01*
X88143956Y-80432560D01*
X88144171Y-80430435D01*
X88198547Y-80152314D01*
X88200317Y-80148040D01*
X88359581Y-79911106D01*
X88367039Y-79906153D01*
X88375817Y-79907924D01*
G37*
%TD.AperFunction*%
%TD*%
%TA.AperFunction,Conductor*%
%TO.N,/Audio Amplifier 1/SDA*%
G36*
X97410307Y-79839847D02*
G01*
X97410971Y-79840258D01*
X97646935Y-79997295D01*
X97651924Y-80004731D01*
X97651936Y-80004790D01*
X97706493Y-80283836D01*
X97704717Y-80292613D01*
X97698378Y-80297286D01*
X97205452Y-80445470D01*
X97196543Y-80444570D01*
X97190879Y-80437633D01*
X97190384Y-80434265D01*
X97190384Y-80203115D01*
X97191933Y-80197297D01*
X97394340Y-79844178D01*
X97401426Y-79838706D01*
X97410307Y-79839847D01*
G37*
%TD.AperFunction*%
%TD*%
%TA.AperFunction,Conductor*%
%TO.N,/Audio Amplifier 1/SCL*%
G36*
X85504812Y-80193805D02*
G01*
X85505444Y-80194876D01*
X85754621Y-80674191D01*
X85755397Y-80683112D01*
X85752513Y-80687861D01*
X85587861Y-80852513D01*
X85579588Y-80855940D01*
X85574191Y-80854621D01*
X85094876Y-80605444D01*
X85089116Y-80598587D01*
X85089892Y-80589666D01*
X85090516Y-80588607D01*
X85247985Y-80351263D01*
X85251263Y-80347985D01*
X85488596Y-80190523D01*
X85497383Y-80188805D01*
X85504812Y-80193805D01*
G37*
%TD.AperFunction*%
%TD*%
%TA.AperFunction,Conductor*%
%TO.N,/Audio Amplifier 1/SCL*%
G36*
X97638648Y-81409903D02*
G01*
X97643791Y-81417234D01*
X97643838Y-81417456D01*
X97700530Y-81697680D01*
X97700530Y-81702320D01*
X97644278Y-81980369D01*
X97639278Y-81987798D01*
X97630490Y-81989517D01*
X97628379Y-81988877D01*
X97113033Y-81777974D01*
X97106674Y-81771669D01*
X97105764Y-81767146D01*
X97105764Y-81534382D01*
X97109191Y-81526109D01*
X97114920Y-81522962D01*
X97629830Y-81408355D01*
X97638648Y-81409903D01*
G37*
%TD.AperFunction*%
%TD*%
%TA.AperFunction,Conductor*%
%TO.N,/Audio Amplifier 1/SCL*%
G36*
X96574699Y-111859191D02*
G01*
X96577583Y-111863940D01*
X96740315Y-112379062D01*
X96739539Y-112387983D01*
X96732682Y-112393743D01*
X96731478Y-112394054D01*
X96452320Y-112450530D01*
X96447680Y-112450530D01*
X96214553Y-112403366D01*
X96168520Y-112394053D01*
X96161092Y-112389054D01*
X96159373Y-112380266D01*
X96159680Y-112379075D01*
X96322417Y-111863939D01*
X96328177Y-111857083D01*
X96333574Y-111855764D01*
X96566426Y-111855764D01*
X96574699Y-111859191D01*
G37*
%TD.AperFunction*%
%TD*%
%TA.AperFunction,Conductor*%
%TO.N,/Audio Amplifier 1/PDN\u005C*%
G36*
X97860333Y-84689892D02*
G01*
X97861400Y-84690521D01*
X98087419Y-84840477D01*
X98098734Y-84847984D01*
X98102015Y-84851265D01*
X98259475Y-85088595D01*
X98261194Y-85097383D01*
X98256194Y-85104812D01*
X98255123Y-85105444D01*
X97775808Y-85354621D01*
X97766887Y-85355397D01*
X97762138Y-85352513D01*
X97597486Y-85187861D01*
X97594059Y-85179588D01*
X97595377Y-85174194D01*
X97844557Y-84694874D01*
X97851412Y-84689116D01*
X97860333Y-84689892D01*
G37*
%TD.AperFunction*%
%TD*%
%TA.AperFunction,Conductor*%
%TO.N,/Audio Amplifier 1/PDN\u005C*%
G36*
X86870929Y-86959681D02*
G01*
X87386060Y-87122417D01*
X87392917Y-87128177D01*
X87394236Y-87133574D01*
X87394236Y-87366425D01*
X87390809Y-87374698D01*
X87386060Y-87377582D01*
X86870937Y-87540315D01*
X86862016Y-87539539D01*
X86856256Y-87532682D01*
X86855949Y-87531494D01*
X86799469Y-87252318D01*
X86799469Y-87247680D01*
X86822554Y-87133574D01*
X86855946Y-86968518D01*
X86860945Y-86961092D01*
X86869733Y-86959373D01*
X86870929Y-86959681D01*
G37*
%TD.AperFunction*%
%TD*%
%TA.AperFunction,Conductor*%
%TO.N,/Audio Amplifier 1/SCLK*%
G36*
X102424699Y-113209191D02*
G01*
X102427583Y-113213940D01*
X102590315Y-113729062D01*
X102589539Y-113737983D01*
X102582682Y-113743743D01*
X102581478Y-113744054D01*
X102302320Y-113800530D01*
X102297680Y-113800530D01*
X102064553Y-113753366D01*
X102018520Y-113744053D01*
X102011092Y-113739054D01*
X102009373Y-113730266D01*
X102009680Y-113729075D01*
X102172417Y-113213939D01*
X102178177Y-113207083D01*
X102183574Y-113205764D01*
X102416426Y-113205764D01*
X102424699Y-113209191D01*
G37*
%TD.AperFunction*%
%TD*%
%TA.AperFunction,Conductor*%
%TO.N,/Audio Amplifier 1/SDIN*%
G36*
X97160333Y-76989892D02*
G01*
X97161400Y-76990521D01*
X97387419Y-77140477D01*
X97398734Y-77147984D01*
X97402015Y-77151265D01*
X97559475Y-77388595D01*
X97561194Y-77397383D01*
X97556194Y-77404812D01*
X97555123Y-77405444D01*
X97075808Y-77654621D01*
X97066887Y-77655397D01*
X97062138Y-77652513D01*
X96897486Y-77487861D01*
X96894059Y-77479588D01*
X96895377Y-77474194D01*
X97144557Y-76994874D01*
X97151412Y-76989116D01*
X97160333Y-76989892D01*
G37*
%TD.AperFunction*%
%TD*%
%TA.AperFunction,Conductor*%
%TO.N,/Audio Amplifier 1/SDIN*%
G36*
X90320929Y-78559681D02*
G01*
X90836060Y-78722417D01*
X90842917Y-78728177D01*
X90844236Y-78733574D01*
X90844236Y-78966425D01*
X90840809Y-78974698D01*
X90836060Y-78977582D01*
X90320937Y-79140315D01*
X90312016Y-79139539D01*
X90306256Y-79132682D01*
X90305949Y-79131494D01*
X90249469Y-78852318D01*
X90249469Y-78847680D01*
X90272554Y-78733574D01*
X90305946Y-78568518D01*
X90310945Y-78561092D01*
X90319733Y-78559373D01*
X90320929Y-78559681D01*
G37*
%TD.AperFunction*%
%TD*%
%TA.AperFunction,Conductor*%
%TO.N,/Audio Amplifier 1/SDIN*%
G36*
X101224699Y-115209191D02*
G01*
X101227583Y-115213940D01*
X101390315Y-115729062D01*
X101389539Y-115737983D01*
X101382682Y-115743743D01*
X101381478Y-115744054D01*
X101102320Y-115800530D01*
X101097680Y-115800530D01*
X100864553Y-115753366D01*
X100818520Y-115744053D01*
X100811092Y-115739054D01*
X100809373Y-115730266D01*
X100809680Y-115729075D01*
X100972417Y-115213939D01*
X100978177Y-115207083D01*
X100983574Y-115205764D01*
X101216426Y-115205764D01*
X101224699Y-115209191D01*
G37*
%TD.AperFunction*%
%TD*%
%TA.AperFunction,Conductor*%
%TO.N,/Audio Amplifier 1/LRCLK*%
G36*
X92931479Y-62705946D02*
G01*
X92938907Y-62710945D01*
X92940626Y-62719733D01*
X92940315Y-62720937D01*
X92777583Y-63236060D01*
X92771823Y-63242917D01*
X92766426Y-63244236D01*
X92533574Y-63244236D01*
X92525301Y-63240809D01*
X92522417Y-63236060D01*
X92359684Y-62720937D01*
X92360460Y-62712016D01*
X92367317Y-62706256D01*
X92368500Y-62705950D01*
X92647682Y-62649469D01*
X92652318Y-62649469D01*
X92931479Y-62705946D01*
G37*
%TD.AperFunction*%
%TD*%
%TA.AperFunction,Conductor*%
%TO.N,/Audio Amplifier 1/LRCLK*%
G36*
X103824699Y-116509191D02*
G01*
X103827583Y-116513940D01*
X103990315Y-117029062D01*
X103989539Y-117037983D01*
X103982682Y-117043743D01*
X103981478Y-117044054D01*
X103702320Y-117100530D01*
X103697680Y-117100530D01*
X103464553Y-117053366D01*
X103418520Y-117044053D01*
X103411092Y-117039054D01*
X103409373Y-117030266D01*
X103409680Y-117029075D01*
X103572417Y-116513939D01*
X103578177Y-116507083D01*
X103583574Y-116505764D01*
X103816426Y-116505764D01*
X103824699Y-116509191D01*
G37*
%TD.AperFunction*%
%TD*%
%TA.AperFunction,Conductor*%
%TO.N,/Audio Amplifier 1/LRCLK*%
G36*
X100200982Y-73762258D02*
G01*
X100202746Y-73766486D01*
X100238504Y-73944537D01*
X100236773Y-73953323D01*
X100229337Y-73958312D01*
X100220551Y-73956581D01*
X100216385Y-73951690D01*
X100213128Y-73944537D01*
X100206284Y-73929507D01*
X100206283Y-73929507D01*
X100206283Y-73929506D01*
X100041863Y-74093927D01*
X100033590Y-74097354D01*
X100025317Y-74093927D01*
X100022791Y-74090154D01*
X99954243Y-73925521D01*
X99954227Y-73916567D01*
X99958511Y-73911319D01*
X100184745Y-73759082D01*
X100193520Y-73757307D01*
X100200982Y-73762258D01*
G37*
%TD.AperFunction*%
%TD*%
%TA.AperFunction,Conductor*%
%TO.N,/Audio Amplifier 1/LRCLK*%
G36*
X100039092Y-73509173D02*
G01*
X100196341Y-73744182D01*
X100198094Y-73752963D01*
X100196324Y-73757220D01*
X100039896Y-73989681D01*
X100032434Y-73994632D01*
X100023657Y-73992856D01*
X100023605Y-73992820D01*
X99698292Y-73771340D01*
X99693381Y-73763852D01*
X99695205Y-73755085D01*
X99696598Y-73753401D01*
X99862069Y-73587930D01*
X99865052Y-73585769D01*
X100024083Y-73505241D01*
X100033011Y-73504561D01*
X100039092Y-73509173D01*
G37*
%TD.AperFunction*%
%TD*%
%TA.AperFunction,Conductor*%
%TO.N,VBUS*%
G36*
X58085710Y-119745335D02*
G01*
X58354664Y-120014289D01*
X58358091Y-120022562D01*
X58355972Y-120029277D01*
X58055986Y-120457331D01*
X58048432Y-120462139D01*
X58039937Y-120460365D01*
X57801265Y-120302015D01*
X57797984Y-120298734D01*
X57639634Y-120060062D01*
X57637915Y-120051274D01*
X57642666Y-120044015D01*
X58070724Y-119744026D01*
X58079464Y-119742085D01*
X58085710Y-119745335D01*
G37*
%TD.AperFunction*%
%TD*%
%TA.AperFunction,Conductor*%
%TO.N,VBUS*%
G36*
X64538981Y-114709682D02*
G01*
X64543734Y-114716943D01*
X64600530Y-114997680D01*
X64600530Y-115002320D01*
X64543734Y-115283056D01*
X64538734Y-115290485D01*
X64530239Y-115292259D01*
X64015437Y-115201701D01*
X64007883Y-115196893D01*
X64005764Y-115190178D01*
X64005764Y-114809821D01*
X64009191Y-114801548D01*
X64015435Y-114798298D01*
X64530239Y-114707740D01*
X64538981Y-114709682D01*
G37*
%TD.AperFunction*%
%TD*%
%TA.AperFunction,Conductor*%
%TO.N,V_IN*%
G36*
X88689830Y-146860487D02*
G01*
X88690966Y-146861921D01*
X88849680Y-147098036D01*
X88851453Y-147102318D01*
X88905944Y-147381027D01*
X88904168Y-147389804D01*
X88896706Y-147394755D01*
X88895086Y-147394955D01*
X88346213Y-147424340D01*
X88337769Y-147421361D01*
X88333905Y-147413282D01*
X88333888Y-147412657D01*
X88333888Y-147180102D01*
X88337315Y-147171829D01*
X88337613Y-147171541D01*
X88673297Y-146859873D01*
X88681690Y-146856756D01*
X88689830Y-146860487D01*
G37*
%TD.AperFunction*%
%TD*%
%TA.AperFunction,Conductor*%
%TO.N,V_IN*%
G36*
X87270929Y-147009681D02*
G01*
X87786060Y-147172417D01*
X87792917Y-147178177D01*
X87794236Y-147183574D01*
X87794236Y-147416425D01*
X87790809Y-147424698D01*
X87786060Y-147427582D01*
X87270937Y-147590315D01*
X87262016Y-147589539D01*
X87256256Y-147582682D01*
X87255949Y-147581494D01*
X87199469Y-147302318D01*
X87199469Y-147297680D01*
X87222554Y-147183574D01*
X87255946Y-147018518D01*
X87260945Y-147011092D01*
X87269733Y-147009373D01*
X87270929Y-147009681D01*
G37*
%TD.AperFunction*%
%TD*%
%TA.AperFunction,Conductor*%
%TO.N,/Main Compute Module/GPIO0*%
G36*
X88575805Y-74745377D02*
G01*
X89055123Y-74994556D01*
X89060883Y-75001412D01*
X89060107Y-75010333D01*
X89059475Y-75011404D01*
X88902015Y-75248734D01*
X88898734Y-75252015D01*
X88661404Y-75409475D01*
X88652616Y-75411194D01*
X88645187Y-75406194D01*
X88644560Y-75405132D01*
X88395377Y-74925806D01*
X88394602Y-74916887D01*
X88397484Y-74912140D01*
X88562139Y-74747485D01*
X88570411Y-74744059D01*
X88575805Y-74745377D01*
G37*
%TD.AperFunction*%
%TD*%
%TA.AperFunction,Conductor*%
%TO.N,/Main Compute Module/GPIO0*%
G36*
X65841271Y-65530264D02*
G01*
X65841903Y-65531335D01*
X66091080Y-66010650D01*
X66091856Y-66019571D01*
X66088972Y-66024320D01*
X65924320Y-66188972D01*
X65916047Y-66192399D01*
X65910650Y-66191080D01*
X65431335Y-65941903D01*
X65425575Y-65935046D01*
X65426351Y-65926125D01*
X65426975Y-65925066D01*
X65584444Y-65687722D01*
X65587722Y-65684444D01*
X65825055Y-65526982D01*
X65833842Y-65525264D01*
X65841271Y-65530264D01*
G37*
%TD.AperFunction*%
%TD*%
%TA.AperFunction,Conductor*%
%TO.N,/Main Compute Module/INT*%
G36*
X76314241Y-74805946D02*
G01*
X76321669Y-74810945D01*
X76323388Y-74819733D01*
X76323077Y-74820937D01*
X76160345Y-75336060D01*
X76154585Y-75342917D01*
X76149188Y-75344236D01*
X75916336Y-75344236D01*
X75908063Y-75340809D01*
X75905179Y-75336060D01*
X75742446Y-74820937D01*
X75743222Y-74812016D01*
X75750079Y-74806256D01*
X75751262Y-74805950D01*
X76030444Y-74749469D01*
X76035080Y-74749469D01*
X76314241Y-74805946D01*
G37*
%TD.AperFunction*%
%TD*%
%TA.AperFunction,Conductor*%
%TO.N,/Main Compute Module/GPIO5*%
G36*
X83179812Y-74118805D02*
G01*
X83180444Y-74119876D01*
X83429621Y-74599191D01*
X83430397Y-74608112D01*
X83427513Y-74612861D01*
X83262861Y-74777513D01*
X83254588Y-74780940D01*
X83249191Y-74779621D01*
X82769876Y-74530444D01*
X82764116Y-74523587D01*
X82764892Y-74514666D01*
X82765516Y-74513607D01*
X82922985Y-74276263D01*
X82926263Y-74272985D01*
X83163596Y-74115523D01*
X83172383Y-74113805D01*
X83179812Y-74118805D01*
G37*
%TD.AperFunction*%
%TD*%
%TA.AperFunction,Conductor*%
%TO.N,/Main Compute Module/GPIO14*%
G36*
X83035333Y-79364892D02*
G01*
X83036400Y-79365521D01*
X83262419Y-79515477D01*
X83273734Y-79522984D01*
X83277015Y-79526265D01*
X83434475Y-79763595D01*
X83436194Y-79772383D01*
X83431194Y-79779812D01*
X83430123Y-79780444D01*
X82950808Y-80029621D01*
X82941887Y-80030397D01*
X82937138Y-80027513D01*
X82772486Y-79862861D01*
X82769059Y-79854588D01*
X82770377Y-79849194D01*
X83019557Y-79369874D01*
X83026412Y-79364116D01*
X83035333Y-79364892D01*
G37*
%TD.AperFunction*%
%TD*%
%TA.AperFunction,Conductor*%
%TO.N,/Main Compute Module/GPIO14*%
G36*
X79960192Y-87768675D02*
G01*
X79961912Y-87770095D01*
X80126470Y-87934653D01*
X80129897Y-87942926D01*
X80126916Y-87950728D01*
X79806191Y-88309127D01*
X79798120Y-88313007D01*
X79791005Y-88311074D01*
X79553364Y-88153408D01*
X79548366Y-88145982D01*
X79493729Y-87867274D01*
X79495500Y-87858498D01*
X79502958Y-87853544D01*
X79951421Y-87766881D01*
X79960192Y-87768675D01*
G37*
%TD.AperFunction*%
%TD*%
%TA.AperFunction,Conductor*%
%TO.N,/Main Compute Module/GPIO15*%
G36*
X75004789Y-69499969D02*
G01*
X75013479Y-69501727D01*
X75283994Y-69556455D01*
X75291422Y-69561454D01*
X75293329Y-69568937D01*
X75250932Y-70056016D01*
X75246801Y-70063960D01*
X75239276Y-70066701D01*
X75006495Y-70066701D01*
X74998222Y-70063274D01*
X74996567Y-70061192D01*
X74756541Y-69676264D01*
X74755071Y-69667430D01*
X74759940Y-69660364D01*
X74995943Y-69501726D01*
X75004720Y-69499956D01*
X75004789Y-69499969D01*
G37*
%TD.AperFunction*%
%TD*%
%TA.AperFunction,Conductor*%
%TO.N,/Main Compute Module/GPIO15*%
G36*
X75249308Y-78859191D02*
G01*
X75252333Y-78864422D01*
X75390994Y-79379435D01*
X75389836Y-79388315D01*
X75382738Y-79393775D01*
X75382016Y-79393945D01*
X75102320Y-79450530D01*
X75097680Y-79450530D01*
X74819070Y-79394165D01*
X74811641Y-79389165D01*
X74809922Y-79380377D01*
X74810387Y-79378721D01*
X74997206Y-78863476D01*
X75003247Y-78856866D01*
X75008205Y-78855764D01*
X75241035Y-78855764D01*
X75249308Y-78859191D01*
G37*
%TD.AperFunction*%
%TD*%
%TA.AperFunction,Conductor*%
%TO.N,/Main Compute Module/GPIO16*%
G36*
X74424699Y-80559191D02*
G01*
X74427583Y-80563940D01*
X74590315Y-81079062D01*
X74589539Y-81087983D01*
X74582682Y-81093743D01*
X74581478Y-81094054D01*
X74302320Y-81150530D01*
X74297680Y-81150530D01*
X74064553Y-81103366D01*
X74018520Y-81094053D01*
X74011092Y-81089054D01*
X74009373Y-81080266D01*
X74009680Y-81079075D01*
X74172417Y-80563939D01*
X74178177Y-80557083D01*
X74183574Y-80555764D01*
X74416426Y-80555764D01*
X74424699Y-80559191D01*
G37*
%TD.AperFunction*%
%TD*%
%TA.AperFunction,Conductor*%
%TO.N,/Main Compute Module/GPIO16*%
G36*
X74454000Y-71451688D02*
G01*
X74454059Y-71451727D01*
X74689518Y-71610000D01*
X74694472Y-71617459D01*
X74692701Y-71626237D01*
X74692557Y-71626447D01*
X74428495Y-72001383D01*
X74420929Y-72006174D01*
X74418929Y-72006346D01*
X74186256Y-72006346D01*
X74177983Y-72002919D01*
X74174565Y-71995098D01*
X74159974Y-71617459D01*
X74156150Y-71518472D01*
X74159255Y-71510073D01*
X74165519Y-71506553D01*
X74445212Y-71449969D01*
X74454000Y-71451688D01*
G37*
%TD.AperFunction*%
%TD*%
%TA.AperFunction,Conductor*%
%TO.N,/Audio Amplifier 1/ADR{slash}FAULT\u005C*%
G36*
X92854812Y-60743805D02*
G01*
X92855444Y-60744876D01*
X93104621Y-61224191D01*
X93105397Y-61233112D01*
X93102513Y-61237861D01*
X92937861Y-61402513D01*
X92929588Y-61405940D01*
X92924191Y-61404621D01*
X92444876Y-61155444D01*
X92439116Y-61148587D01*
X92439892Y-61139666D01*
X92440516Y-61138607D01*
X92597985Y-60901263D01*
X92601263Y-60897985D01*
X92838596Y-60740523D01*
X92847383Y-60738805D01*
X92854812Y-60743805D01*
G37*
%TD.AperFunction*%
%TD*%
%TA.AperFunction,Conductor*%
%TO.N,/Audio Amplifier 1/ADR{slash}FAULT\u005C*%
G36*
X103637983Y-70960460D02*
G01*
X103643743Y-70967317D01*
X103644054Y-70968521D01*
X103700530Y-71247680D01*
X103700530Y-71252320D01*
X103644054Y-71531478D01*
X103639054Y-71538907D01*
X103630266Y-71540626D01*
X103629062Y-71540315D01*
X103113940Y-71377582D01*
X103107083Y-71371822D01*
X103105764Y-71366425D01*
X103105764Y-71133574D01*
X103109191Y-71125301D01*
X103113940Y-71122417D01*
X103629063Y-70959684D01*
X103637983Y-70960460D01*
G37*
%TD.AperFunction*%
%TD*%
%TA.AperFunction,Conductor*%
%TO.N,/Audio Amplifier 2/ADR{slash}FAULT\u005C*%
G36*
X89831479Y-95505946D02*
G01*
X89838907Y-95510945D01*
X89840626Y-95519733D01*
X89840315Y-95520937D01*
X89677583Y-96036060D01*
X89671823Y-96042917D01*
X89666426Y-96044236D01*
X89433574Y-96044236D01*
X89425301Y-96040809D01*
X89422417Y-96036060D01*
X89259684Y-95520937D01*
X89260460Y-95512016D01*
X89267317Y-95506256D01*
X89268500Y-95505950D01*
X89547682Y-95449469D01*
X89552318Y-95449469D01*
X89831479Y-95505946D01*
G37*
%TD.AperFunction*%
%TD*%
%TA.AperFunction,Conductor*%
%TO.N,/Audio Amplifier 2/ADR{slash}FAULT\u005C*%
G36*
X105275805Y-129995377D02*
G01*
X105755123Y-130244556D01*
X105760883Y-130251412D01*
X105760107Y-130260333D01*
X105759475Y-130261404D01*
X105602015Y-130498734D01*
X105598734Y-130502015D01*
X105361404Y-130659475D01*
X105352616Y-130661194D01*
X105345187Y-130656194D01*
X105344560Y-130655132D01*
X105095377Y-130175806D01*
X105094602Y-130166887D01*
X105097484Y-130162140D01*
X105262139Y-129997485D01*
X105270411Y-129994059D01*
X105275805Y-129995377D01*
G37*
%TD.AperFunction*%
%TD*%
%TA.AperFunction,Conductor*%
%TO.N,/Audio Amplifier 3/ADR{slash}FAULT\u005C*%
G36*
X86431479Y-83955946D02*
G01*
X86438907Y-83960945D01*
X86440626Y-83969733D01*
X86440315Y-83970937D01*
X86277583Y-84486060D01*
X86271823Y-84492917D01*
X86266426Y-84494236D01*
X86033574Y-84494236D01*
X86025301Y-84490809D01*
X86022417Y-84486060D01*
X85859684Y-83970937D01*
X85860460Y-83962016D01*
X85867317Y-83956256D01*
X85868500Y-83955950D01*
X86147682Y-83899469D01*
X86152318Y-83899469D01*
X86431479Y-83955946D01*
G37*
%TD.AperFunction*%
%TD*%
%TA.AperFunction,Conductor*%
%TO.N,/Audio Amplifier 3/ADR{slash}FAULT\u005C*%
G36*
X98137983Y-89810460D02*
G01*
X98143743Y-89817317D01*
X98144054Y-89818521D01*
X98200530Y-90097680D01*
X98200530Y-90102320D01*
X98144054Y-90381478D01*
X98139054Y-90388907D01*
X98130266Y-90390626D01*
X98129062Y-90390315D01*
X97613940Y-90227582D01*
X97607083Y-90221822D01*
X97605764Y-90216425D01*
X97605764Y-89983574D01*
X97609191Y-89975301D01*
X97613940Y-89972417D01*
X98129063Y-89809684D01*
X98137983Y-89810460D01*
G37*
%TD.AperFunction*%
%TD*%
%TA.AperFunction,Conductor*%
%TO.N,/Main Compute Module/GPIO7*%
G36*
X77040702Y-71895655D02*
G01*
X77045653Y-71903117D01*
X77045781Y-71903921D01*
X77111400Y-72432499D01*
X77109018Y-72441131D01*
X77101230Y-72445551D01*
X77099789Y-72445640D01*
X76867446Y-72445640D01*
X76859716Y-72442722D01*
X76591002Y-72206195D01*
X76587056Y-72198157D01*
X76588992Y-72190931D01*
X76747295Y-71953064D01*
X76754731Y-71948075D01*
X76754727Y-71948075D01*
X77031927Y-71893879D01*
X77040702Y-71895655D01*
G37*
%TD.AperFunction*%
%TD*%
%TA.AperFunction,Conductor*%
%TO.N,/Main Compute Module/GPIO12*%
G36*
X81531479Y-78955946D02*
G01*
X81538907Y-78960945D01*
X81540626Y-78969733D01*
X81540315Y-78970937D01*
X81377583Y-79486060D01*
X81371823Y-79492917D01*
X81366426Y-79494236D01*
X81133574Y-79494236D01*
X81125301Y-79490809D01*
X81122417Y-79486060D01*
X80959684Y-78970937D01*
X80960460Y-78962016D01*
X80967317Y-78956256D01*
X80968500Y-78955950D01*
X81247682Y-78899469D01*
X81252318Y-78899469D01*
X81531479Y-78955946D01*
G37*
%TD.AperFunction*%
%TD*%
%TA.AperFunction,Conductor*%
%TO.N,/Main Compute Module/GPIO12*%
G36*
X79337861Y-85797486D02*
G01*
X79502513Y-85962138D01*
X79505940Y-85970411D01*
X79504621Y-85975808D01*
X79255444Y-86455123D01*
X79248587Y-86460883D01*
X79239666Y-86460107D01*
X79238595Y-86459475D01*
X79001265Y-86302015D01*
X78997984Y-86298734D01*
X78840524Y-86061404D01*
X78838805Y-86052616D01*
X78843805Y-86045187D01*
X78844859Y-86044564D01*
X79324193Y-85795377D01*
X79333112Y-85794602D01*
X79337861Y-85797486D01*
G37*
%TD.AperFunction*%
%TD*%
%TA.AperFunction,Conductor*%
%TO.N,/Main Compute Module/GPIO6*%
G36*
X78231479Y-74005946D02*
G01*
X78238907Y-74010945D01*
X78240626Y-74019733D01*
X78240315Y-74020937D01*
X78077583Y-74536060D01*
X78071823Y-74542917D01*
X78066426Y-74544236D01*
X77833574Y-74544236D01*
X77825301Y-74540809D01*
X77822417Y-74536060D01*
X77659684Y-74020937D01*
X77660460Y-74012016D01*
X77667317Y-74006256D01*
X77668500Y-74005950D01*
X77947682Y-73949469D01*
X77952318Y-73949469D01*
X78231479Y-74005946D01*
G37*
%TD.AperFunction*%
%TD*%
D27*
X117900000Y-153200000D03*
X120100000Y-156600000D03*
X118550000Y-155050000D03*
X120100000Y-155200000D03*
X118600000Y-156600000D03*
X113900000Y-66250000D03*
X84250000Y-137600000D03*
X110550000Y-147000000D03*
X120500000Y-69800000D03*
X120500000Y-68400000D03*
X120600000Y-121000000D03*
X101200000Y-145200000D03*
X109400000Y-154500000D03*
X120400000Y-129000000D03*
X122100000Y-124900000D03*
X122100000Y-119600000D03*
X122400000Y-89300000D03*
X104500000Y-149700000D03*
X94600000Y-146500000D03*
X117600000Y-89300000D03*
X105300000Y-89800000D03*
X93300000Y-146500000D03*
X120400000Y-115500000D03*
X96600000Y-149100000D03*
X97900000Y-149100000D03*
X106600000Y-86000000D03*
X121900000Y-151100000D03*
X98500000Y-145200000D03*
X106900000Y-152100000D03*
X118900000Y-129000000D03*
X120500000Y-93400000D03*
X119000000Y-113400000D03*
X120300000Y-147500000D03*
X109200000Y-87300000D03*
X102900000Y-149200000D03*
X120303268Y-150500000D03*
X119100000Y-119600000D03*
X120161563Y-64939740D03*
X109900000Y-86000000D03*
X122300000Y-93400000D03*
X120500000Y-66900000D03*
X90500000Y-147900000D03*
X120400000Y-133900000D03*
X113300000Y-155500000D03*
X95900000Y-145200000D03*
X119000000Y-131100000D03*
X94000000Y-149100000D03*
X120500000Y-81900000D03*
X114100000Y-87300000D03*
X120500000Y-83300000D03*
X119000000Y-149000000D03*
X115800000Y-89300000D03*
X123800000Y-63600000D03*
X98500000Y-143900000D03*
X101300000Y-146500000D03*
X89200000Y-155200000D03*
X108100000Y-86000000D03*
X120400000Y-110500000D03*
X119100000Y-124900000D03*
X103900000Y-87000000D03*
X98700000Y-147900000D03*
X94600000Y-145200000D03*
X109200000Y-90700000D03*
X111500000Y-155500000D03*
X120400000Y-111900000D03*
X99800000Y-146500000D03*
X97200000Y-145200000D03*
X99500000Y-149200000D03*
X120600000Y-123500000D03*
X103900000Y-89800000D03*
X114100000Y-89100000D03*
X105300000Y-91100000D03*
X121900000Y-115500000D03*
X110900000Y-87300000D03*
X120400000Y-95600000D03*
X110900000Y-89100000D03*
X116900000Y-156400000D03*
X120400000Y-149000000D03*
X120500000Y-86400000D03*
X112500000Y-87300000D03*
X108100000Y-153300000D03*
X92000000Y-146500000D03*
X120400000Y-98500000D03*
X117500000Y-91000000D03*
X121900000Y-154900000D03*
X118300000Y-64900000D03*
X104000000Y-147900000D03*
X105300000Y-87000000D03*
X120400000Y-97100000D03*
X120500000Y-84800000D03*
X122100000Y-123500000D03*
X120300000Y-146100000D03*
X97200000Y-143900000D03*
X106500000Y-91800000D03*
X117600000Y-87900000D03*
X117400000Y-86400000D03*
X103900000Y-88400000D03*
X122100000Y-121000000D03*
X99800000Y-145200000D03*
X117500000Y-63400000D03*
X119300000Y-87900000D03*
X115800000Y-87500000D03*
X119000000Y-66900000D03*
X105300000Y-88400000D03*
X120600000Y-119600000D03*
X119100000Y-121000000D03*
X119000000Y-86400000D03*
X119100000Y-123500000D03*
X118900000Y-115500000D03*
X118900000Y-95600000D03*
X95900000Y-146500000D03*
X92700000Y-149100000D03*
X118900000Y-151100000D03*
X120400000Y-131100000D03*
X105800000Y-150900000D03*
X98500000Y-146500000D03*
X121800000Y-65000000D03*
X120600000Y-124900000D03*
X117600000Y-92500000D03*
X95300000Y-149100000D03*
X94600000Y-143900000D03*
X119000000Y-84800000D03*
X93300000Y-145200000D03*
X120400000Y-113400000D03*
X120900000Y-87900000D03*
X108000000Y-91800000D03*
X90100000Y-149100000D03*
X109500000Y-89200000D03*
X117100000Y-154700000D03*
X91400000Y-149100000D03*
X120400000Y-132500000D03*
X119300000Y-89300000D03*
X122400000Y-95600000D03*
X119000000Y-93400000D03*
X95900000Y-143900000D03*
X120900000Y-89300000D03*
X99800000Y-143900000D03*
X112500000Y-89100000D03*
X97200000Y-146500000D03*
X115300000Y-155600000D03*
X121900000Y-129000000D03*
X126400000Y-69700000D03*
X79800000Y-63900000D03*
X112600000Y-109700000D03*
X73200000Y-130600000D03*
X77875000Y-67942976D03*
X111500000Y-97400000D03*
X135600000Y-82200000D03*
X110100000Y-111400000D03*
X81800000Y-62600000D03*
X74700000Y-130600000D03*
X111200000Y-93400000D03*
X71700000Y-131900000D03*
X117500000Y-131200000D03*
X84600000Y-59800000D03*
X128500000Y-133400000D03*
X116700000Y-134000000D03*
X82250000Y-123300000D03*
X134000000Y-145600000D03*
X113000000Y-93400000D03*
X58700000Y-70000000D03*
X68800000Y-131500000D03*
X113600000Y-119400000D03*
X116700000Y-132400000D03*
X135700000Y-98100000D03*
X112400000Y-114200000D03*
X109200000Y-131100000D03*
X114900000Y-132400000D03*
X116600000Y-98400000D03*
X112400000Y-130300000D03*
X94800000Y-151700000D03*
X77500000Y-66500000D03*
X88900000Y-59800000D03*
X124500000Y-135700000D03*
X132300000Y-98000000D03*
X130500000Y-146500000D03*
X97000000Y-59640000D03*
X109900000Y-68700000D03*
X87500000Y-59800000D03*
X80400000Y-62600000D03*
X135600000Y-146400000D03*
X84400000Y-123950000D03*
X62600000Y-119700000D03*
X109500000Y-82000000D03*
X59900000Y-69100000D03*
X114250000Y-67800000D03*
X134100000Y-98900000D03*
X122300000Y-102400000D03*
X110600000Y-63800000D03*
X87500000Y-62600000D03*
X113000000Y-95200000D03*
X100150000Y-59640000D03*
X110900000Y-84700000D03*
X87112500Y-126278000D03*
X108700000Y-102600000D03*
X80400000Y-59800000D03*
X117100000Y-128100000D03*
X66700000Y-98000000D03*
X53100000Y-86700000D03*
X68800000Y-132900000D03*
X97400000Y-154400000D03*
X109200000Y-126100000D03*
X115400000Y-128900000D03*
X86900000Y-63900000D03*
X130400000Y-82300000D03*
X112700000Y-146700000D03*
X77215000Y-96642500D03*
X124400000Y-80100000D03*
X122200000Y-77900000D03*
X112400000Y-98700000D03*
X105100000Y-81700000D03*
X126400000Y-98400000D03*
X115300000Y-151200000D03*
X79000000Y-62600000D03*
X110000000Y-151750000D03*
X117100000Y-118300000D03*
X111400000Y-68700000D03*
X109000000Y-148650000D03*
X112300000Y-149800000D03*
X115550000Y-66650000D03*
X113600000Y-121000000D03*
X59200000Y-112200000D03*
X67730426Y-60642377D03*
X109200000Y-95200000D03*
X98800000Y-154400000D03*
X85400000Y-156400000D03*
X116500000Y-93400000D03*
X74600000Y-59800000D03*
X109200000Y-118000000D03*
X113600000Y-125100000D03*
X109200000Y-122900000D03*
X84600000Y-62600000D03*
X122200000Y-106600000D03*
X73200000Y-131900000D03*
X62900000Y-114100000D03*
X68300000Y-98000000D03*
X115000000Y-97700000D03*
X108300000Y-84700000D03*
X89700000Y-124300000D03*
X96100000Y-151700000D03*
X104950000Y-59640000D03*
X69600000Y-65300000D03*
X70200000Y-134700000D03*
X74700000Y-133300000D03*
X117150000Y-151337171D03*
X68300000Y-126400000D03*
X116600000Y-96800000D03*
X114900000Y-65100000D03*
X85400000Y-63900000D03*
X70200000Y-131900000D03*
X112500000Y-145300000D03*
X128600000Y-111000000D03*
X84246250Y-138200000D03*
X86100000Y-144800000D03*
X64100000Y-121300000D03*
X116000000Y-149800000D03*
X116500000Y-69800000D03*
X135600000Y-69400000D03*
X106300000Y-84700000D03*
X98800000Y-153100000D03*
X85812500Y-124978000D03*
X71700000Y-134700000D03*
X108800000Y-73900000D03*
X86100000Y-59800000D03*
X84700000Y-65200000D03*
X132300000Y-82300000D03*
X111450000Y-64900000D03*
X112700000Y-70200000D03*
X112500000Y-134300000D03*
X109200000Y-93400000D03*
X130400000Y-133400000D03*
X62900000Y-112400000D03*
X116600000Y-83500000D03*
X90300000Y-150400000D03*
X61000000Y-104000000D03*
X135600000Y-110900000D03*
X109200000Y-121300000D03*
X64100000Y-123000000D03*
X109200000Y-129500000D03*
X134000000Y-147300000D03*
X114800000Y-93400000D03*
X132400000Y-111000000D03*
X128600000Y-146500000D03*
X89600000Y-144800000D03*
X116600000Y-81900000D03*
X81200000Y-61100000D03*
X83200000Y-65200000D03*
X134100000Y-134400000D03*
X78300000Y-61100000D03*
X134000000Y-111800000D03*
X134000000Y-110100000D03*
X96100000Y-154400000D03*
X57700000Y-69100000D03*
X117400000Y-148900000D03*
X111300000Y-82900000D03*
X126300000Y-146100000D03*
X134000000Y-81400000D03*
X113600000Y-96600000D03*
X113600000Y-123500000D03*
X64100000Y-118200000D03*
X110900000Y-131400000D03*
X109200000Y-116400000D03*
X116300000Y-64400000D03*
X85812500Y-126278000D03*
X128500000Y-82300000D03*
X110900000Y-132700000D03*
X134100000Y-97200000D03*
X108500000Y-138000000D03*
X112400000Y-66000000D03*
X81525000Y-96350000D03*
X111700000Y-128900000D03*
X115500000Y-121000000D03*
X62397880Y-105348713D03*
X83200000Y-66500000D03*
X77500000Y-65200000D03*
X100300000Y-154400000D03*
X122200000Y-142100000D03*
X109000000Y-146950000D03*
X111800000Y-119400000D03*
X114200000Y-114200000D03*
X88412500Y-126278000D03*
X132400000Y-146500000D03*
X114800000Y-95200000D03*
X115500000Y-125100000D03*
X82600000Y-63900000D03*
X59700000Y-103200000D03*
X81800000Y-59800000D03*
X89700000Y-123000000D03*
X98550000Y-59640000D03*
X116500000Y-110500000D03*
X114100000Y-149800000D03*
X82890000Y-96450000D03*
X98800000Y-151700000D03*
X111800000Y-123500000D03*
X103800000Y-81400000D03*
X134100000Y-68500000D03*
X115500000Y-119400000D03*
X113500000Y-128900000D03*
X124500000Y-71500000D03*
X114400000Y-82700000D03*
X84400000Y-125250000D03*
X97400000Y-151700000D03*
X86900000Y-61100000D03*
X130300000Y-69200000D03*
X109200000Y-119600000D03*
X83200000Y-67800000D03*
X135700000Y-133600000D03*
X94800000Y-153100000D03*
X134000000Y-83100000D03*
X128400000Y-69200000D03*
X114200000Y-130300000D03*
X96100000Y-153100000D03*
X74700000Y-134700000D03*
X85812500Y-123678000D03*
X117100000Y-124400000D03*
X87112500Y-124978000D03*
X71500000Y-114900000D03*
X113500000Y-115600000D03*
X104900000Y-79953223D03*
X70200000Y-133300000D03*
X69900000Y-98000000D03*
X116100000Y-130300000D03*
X110400000Y-67400000D03*
X71800000Y-59700000D03*
X59000000Y-113900000D03*
X126300000Y-110600000D03*
X116500000Y-68200000D03*
X115200000Y-69000000D03*
X62000000Y-68500000D03*
X113900000Y-84300000D03*
X108600000Y-97400000D03*
X117100000Y-116400000D03*
X108800000Y-112600000D03*
X132300000Y-133400000D03*
X84700000Y-66500000D03*
X111200000Y-95200000D03*
X134100000Y-132700000D03*
X82600000Y-61100000D03*
X115500000Y-123500000D03*
X126400000Y-133900000D03*
X85212500Y-121902054D03*
X73552749Y-114959100D03*
X111800000Y-121000000D03*
X116100000Y-114200000D03*
X88412500Y-124978000D03*
X111600000Y-151200000D03*
X114300000Y-112200000D03*
X69500000Y-120000000D03*
X78300000Y-63900000D03*
X130500000Y-111000000D03*
X109200000Y-127800000D03*
X134100000Y-70200000D03*
X112800000Y-111100000D03*
X84000000Y-61100000D03*
X103350000Y-59640000D03*
X132200000Y-69200000D03*
X109200000Y-124500000D03*
X69500000Y-121500000D03*
X53100000Y-82700000D03*
X111700000Y-115600000D03*
X116400000Y-146100000D03*
X79800000Y-61100000D03*
X124400000Y-108800000D03*
X128500000Y-98000000D03*
X124500000Y-100200000D03*
X109200000Y-114800000D03*
X93700000Y-59640000D03*
X97400000Y-153100000D03*
X77500000Y-59800000D03*
X117000000Y-95200000D03*
X88412500Y-123678000D03*
X60700000Y-110039250D03*
X71700000Y-133300000D03*
X74700000Y-131900000D03*
X79600000Y-100200000D03*
X64100000Y-119700000D03*
X117100000Y-120100000D03*
X79000000Y-59800000D03*
X92200000Y-59640000D03*
X115400000Y-115600000D03*
X64500000Y-126500000D03*
X58700000Y-68200000D03*
X101800000Y-59640000D03*
X71700000Y-130600000D03*
X62600000Y-121300000D03*
X117200000Y-66900000D03*
X122300000Y-137900000D03*
X130400000Y-98000000D03*
X70200000Y-130600000D03*
X101800000Y-153100000D03*
X76900000Y-61100000D03*
X110600000Y-92000000D03*
X110100000Y-97400000D03*
X94800000Y-154400000D03*
X81200000Y-63900000D03*
X109100000Y-150400000D03*
X83200000Y-62600000D03*
X58300000Y-83300000D03*
X111100000Y-112800000D03*
X73200000Y-134700000D03*
X76100000Y-59800000D03*
X86100000Y-62600000D03*
X83200000Y-59800000D03*
X112600000Y-81600000D03*
X105200000Y-83600000D03*
X100300000Y-153100000D03*
X73200000Y-133300000D03*
X117500000Y-113300000D03*
X106400000Y-59640000D03*
X95350000Y-59640000D03*
X85400000Y-61100000D03*
X84000000Y-63900000D03*
X113900000Y-134400000D03*
X116400000Y-147700000D03*
X116500000Y-112100000D03*
X111800000Y-125100000D03*
X110100000Y-145400000D03*
X117100000Y-126200000D03*
X77500000Y-62600000D03*
X124400000Y-144300000D03*
X122300000Y-73700000D03*
X112500000Y-133000000D03*
X109200000Y-132700000D03*
X88300000Y-61100000D03*
X87112500Y-123678000D03*
X103800000Y-83100000D03*
X111000000Y-148650000D03*
X109500000Y-83300000D03*
X114600000Y-147700000D03*
X126300000Y-81900000D03*
X58300000Y-86400000D03*
X97650000Y-80000000D03*
X99800000Y-119000000D03*
X88200000Y-80150000D03*
X85250000Y-80350000D03*
X96450000Y-112450000D03*
X97700000Y-81700000D03*
X98100000Y-84850000D03*
X86800000Y-87250000D03*
X102300000Y-113800000D03*
X101100000Y-115800000D03*
X90250000Y-78850000D03*
X97400000Y-77150000D03*
X103700000Y-117100000D03*
X100200000Y-73750000D03*
X92650000Y-62650000D03*
X57800000Y-120300000D03*
X64600000Y-115000000D03*
X88850000Y-147100000D03*
X87200000Y-147300000D03*
X107400000Y-134600000D03*
X109500000Y-72200000D03*
X78850000Y-82475000D03*
X86762500Y-116128000D03*
X81229167Y-116128000D03*
X71800000Y-61300000D03*
X111156413Y-100925000D03*
X107700000Y-99100000D03*
X81525000Y-97950000D03*
X88129166Y-117428000D03*
X89350000Y-83650000D03*
X107700000Y-69900000D03*
X89495833Y-120228000D03*
X78450000Y-100200000D03*
X89495833Y-117428000D03*
X60300000Y-83400000D03*
X82595833Y-114828000D03*
X82595833Y-116128000D03*
X109300000Y-100925000D03*
X80946250Y-133258750D03*
X81229167Y-114828000D03*
X86762500Y-114828000D03*
X66400000Y-63900000D03*
X65500000Y-68400000D03*
X109600000Y-136400000D03*
X89495833Y-118828000D03*
X74601000Y-61400000D03*
X89495833Y-116128000D03*
X87600000Y-119250000D03*
X85395833Y-117428000D03*
X88129166Y-116128000D03*
X67300000Y-62100000D03*
X84650000Y-119250000D03*
X88129166Y-114828000D03*
X111300000Y-136400000D03*
X111300000Y-72200000D03*
X86762500Y-117428000D03*
X86250000Y-119250000D03*
X83962500Y-117428000D03*
X60300000Y-86100000D03*
X82815000Y-97950000D03*
X81229167Y-117428000D03*
X82595833Y-117428000D03*
X65586459Y-65686459D03*
X88900000Y-75250000D03*
X76032762Y-74750000D03*
X82925000Y-74275000D03*
X83275000Y-79525000D03*
X79550000Y-88150000D03*
X75000000Y-69500000D03*
X75100000Y-79450000D03*
X74300000Y-81150000D03*
X74450002Y-71450000D03*
X92600000Y-60900000D03*
X103700000Y-71250000D03*
X105600000Y-130500000D03*
X89550000Y-95450000D03*
X86150000Y-83900000D03*
X98200000Y-90100000D03*
X76750000Y-71950000D03*
X81250000Y-78900000D03*
X79000000Y-86300000D03*
X77950000Y-73950000D03*
D28*
X143473098Y-135986777D03*
X143473098Y-130986777D03*
X54800000Y-133600000D03*
X54800000Y-138600000D03*
X69200000Y-112400000D03*
X71740000Y-112400000D03*
X75370000Y-93150000D03*
X77910000Y-93150000D03*
X80450000Y-93150000D03*
X82990000Y-93150000D03*
X85530000Y-93150000D03*
X56400000Y-94575000D03*
X56400000Y-92035000D03*
D29*
X86904550Y-149756662D03*
D28*
X63650000Y-79200000D03*
X63650000Y-81740000D03*
X63650000Y-84280000D03*
X143802944Y-154397056D03*
X144505888Y-152700000D03*
X144505888Y-156094112D03*
X146202944Y-151997056D03*
X146202944Y-154397056D03*
X146202944Y-156797056D03*
X147900000Y-152700000D03*
X147900000Y-156094112D03*
X148602944Y-154397056D03*
X143473098Y-73300000D03*
X143473098Y-68300000D03*
X107780000Y-62050000D03*
X105240000Y-62050000D03*
X102700000Y-62050000D03*
X143802944Y-62000000D03*
X144505888Y-60302944D03*
X144505888Y-63697056D03*
X146202944Y-59600000D03*
X146202944Y-62000000D03*
X146202944Y-64400000D03*
X147900000Y-60302944D03*
X147900000Y-63697056D03*
X148602944Y-62000000D03*
X143473098Y-147700000D03*
X143473098Y-142700000D03*
X143473098Y-113486777D03*
X143473098Y-108486777D03*
X51400000Y-62000000D03*
X52102944Y-60302944D03*
X52102944Y-63697056D03*
X53800000Y-59600000D03*
X53800000Y-62000000D03*
X53800000Y-64400000D03*
X55497056Y-60302944D03*
X55497056Y-63697056D03*
X56200000Y-62000000D03*
X52800000Y-94575000D03*
X52800000Y-92035000D03*
X76800000Y-123200000D03*
X76800000Y-125740000D03*
X87350000Y-102760000D03*
X87350000Y-105300000D03*
X143473098Y-84769360D03*
X143473098Y-79769360D03*
D30*
X114776600Y-71192583D03*
X114776600Y-72506869D03*
X114776600Y-73821154D03*
X114776600Y-75135440D03*
X114776600Y-76449726D03*
X114776600Y-77764012D03*
X114776600Y-79078297D03*
X114776600Y-80392583D03*
X116226600Y-71192583D03*
X116226600Y-72506869D03*
X116226600Y-73821154D03*
X116226600Y-75135440D03*
X116226600Y-76449726D03*
X116226600Y-77764012D03*
X116226600Y-79078297D03*
X116226600Y-80392583D03*
X117676600Y-71192583D03*
X117676600Y-72506869D03*
X117676600Y-73821154D03*
X117676600Y-75135440D03*
X117676600Y-76449726D03*
X117676600Y-77764012D03*
X117676600Y-79078297D03*
X117676600Y-80392583D03*
X114775000Y-135410000D03*
X114775000Y-136724286D03*
X114775000Y-138038571D03*
X114775000Y-139352857D03*
X114775000Y-140667143D03*
X114775000Y-141981429D03*
X114775000Y-143295714D03*
X114775000Y-144610000D03*
X116225000Y-135410000D03*
X116225000Y-136724286D03*
X116225000Y-138038571D03*
X116225000Y-139352857D03*
X116225000Y-140667143D03*
X116225000Y-141981429D03*
X116225000Y-143295714D03*
X116225000Y-144610000D03*
X117675000Y-135410000D03*
X117675000Y-136724286D03*
X117675000Y-138038571D03*
X117675000Y-139352857D03*
X117675000Y-140667143D03*
X117675000Y-141981429D03*
X117675000Y-143295714D03*
X117675000Y-144610000D03*
D28*
X105140000Y-65750000D03*
X102600000Y-65750000D03*
X100060000Y-65750000D03*
X97520000Y-65750000D03*
X56580000Y-104846750D03*
X56580000Y-110626750D03*
D31*
X57080000Y-103416750D03*
X57080000Y-112056750D03*
D32*
X52900000Y-103416750D03*
X52900000Y-112056750D03*
D28*
X143473098Y-100486777D03*
X143473098Y-95486777D03*
X98100000Y-95220000D03*
X98100000Y-97760000D03*
X98100000Y-100300000D03*
X98100000Y-102840000D03*
X98100000Y-105380000D03*
X98100000Y-107920000D03*
D30*
X80400000Y-66660000D03*
X79000000Y-66660000D03*
X81800000Y-66660000D03*
X79000000Y-68060000D03*
X80400000Y-68060000D03*
X81800000Y-68060000D03*
X79700000Y-65960000D03*
X81100000Y-65960000D03*
X79700000Y-67360000D03*
X81100000Y-67360000D03*
X79700000Y-68760000D03*
X81100000Y-68760000D03*
X114775000Y-99910000D03*
X114775000Y-101224286D03*
X114775000Y-102538571D03*
X114775000Y-103852857D03*
X114775000Y-105167143D03*
X114775000Y-106481429D03*
X114775000Y-107795714D03*
X114775000Y-109110000D03*
X116225000Y-99910000D03*
X116225000Y-101224286D03*
X116225000Y-102538571D03*
X116225000Y-103852857D03*
X116225000Y-105167143D03*
X116225000Y-106481429D03*
X116225000Y-107795714D03*
X116225000Y-109110000D03*
X117675000Y-99910000D03*
X117675000Y-101224286D03*
X117675000Y-102538571D03*
X117675000Y-103852857D03*
X117675000Y-105167143D03*
X117675000Y-106481429D03*
X117675000Y-107795714D03*
X117675000Y-109110000D03*
D28*
X84662500Y-115028000D03*
X84662500Y-112488000D03*
X101200000Y-148600000D03*
X101200000Y-151140000D03*
X51400000Y-154397056D03*
X52102944Y-152700000D03*
X52102944Y-156094112D03*
X53800000Y-151997056D03*
X53800000Y-154397056D03*
X53800000Y-156797056D03*
X55497056Y-152700000D03*
X55497056Y-156094112D03*
X56200000Y-154397056D03*
M02*
