M48
; DRILL file {KiCad 9.0.2} date 2025-07-20T18:47:43+1000
; FORMAT={-:-/ absolute / metric / decimal}
; #@! TF.CreationDate,2025-07-20T18:47:43+10:00
; #@! TF.GenerationSoftware,Kicad,Pcbnew,9.0.2
; #@! TF.FileFunction,Plated,1,4,PTH
FMAT,2
METRIC
; #@! TA.AperFunction,Plated,PTH,ComponentDrill
T1C0.200
; #@! TA.AperFunction,Plated,PTH,ComponentDrill
T2C0.203
; #@! TA.AperFunction,Plated,PTH,ViaDrill
T3C0.300
; #@! TA.AperFunction,Plated,PTH,ComponentDrill
T4C0.500
; #@! TA.AperFunction,Plated,PTH,ComponentDrill
T5C0.600
; #@! TA.AperFunction,Plated,PTH,ComponentDrill
T6C0.762
; #@! TA.AperFunction,Plated,PTH,ComponentDrill
T7C1.000
; #@! TA.AperFunction,Plated,PTH,ComponentDrill
T8C1.300
; #@! TA.AperFunction,Plated,PTH,ComponentDrill
T9C3.200
%
G90
G05
T1
X79.0Y-66.66
X79.0Y-68.06
X79.7Y-65.96
X79.7Y-67.36
X79.7Y-68.76
X80.4Y-66.66
X80.4Y-68.06
X81.1Y-65.96
X81.1Y-67.36
X81.1Y-68.76
X81.8Y-66.66
X81.8Y-68.06
X114.775Y-99.91
X114.775Y-101.224
X114.775Y-102.539
X114.775Y-103.853
X114.775Y-105.167
X114.775Y-106.481
X114.775Y-107.796
X114.775Y-109.11
X114.775Y-135.41
X114.775Y-136.724
X114.775Y-138.039
X114.775Y-139.353
X114.775Y-140.667
X114.775Y-141.981
X114.775Y-143.296
X114.775Y-144.61
X114.777Y-71.193
X114.777Y-72.507
X114.777Y-73.821
X114.777Y-75.135
X114.777Y-76.45
X114.777Y-77.764
X114.777Y-79.078
X114.777Y-80.393
X116.225Y-99.91
X116.225Y-101.224
X116.225Y-102.539
X116.225Y-103.853
X116.225Y-105.167
X116.225Y-106.481
X116.225Y-107.796
X116.225Y-109.11
X116.225Y-135.41
X116.225Y-136.724
X116.225Y-138.039
X116.225Y-139.353
X116.225Y-140.667
X116.225Y-141.981
X116.225Y-143.296
X116.225Y-144.61
X116.227Y-71.193
X116.227Y-72.507
X116.227Y-73.821
X116.227Y-75.135
X116.227Y-76.45
X116.227Y-77.764
X116.227Y-79.078
X116.227Y-80.393
X117.675Y-99.91
X117.675Y-101.224
X117.675Y-102.539
X117.675Y-103.853
X117.675Y-105.167
X117.675Y-106.481
X117.675Y-107.796
X117.675Y-109.11
X117.675Y-135.41
X117.675Y-136.724
X117.675Y-138.039
X117.675Y-139.353
X117.675Y-140.667
X117.675Y-141.981
X117.675Y-143.296
X117.675Y-144.61
X117.677Y-71.193
X117.677Y-72.507
X117.677Y-73.821
X117.677Y-75.135
X117.677Y-76.45
X117.677Y-77.764
X117.677Y-79.078
X117.677Y-80.393
T2
X86.905Y-149.757
T3
X53.1Y-82.7
X53.1Y-86.7
X57.7Y-69.1
X57.8Y-120.3
X58.3Y-83.3
X58.3Y-86.4
X58.7Y-68.2
X58.7Y-70.0
X59.0Y-113.9
X59.2Y-112.2
X59.7Y-103.2
X59.9Y-69.1
X60.3Y-83.4
X60.3Y-86.1
X60.7Y-110.039
X61.0Y-104.0
X62.0Y-68.5
X62.398Y-105.349
X62.6Y-119.7
X62.6Y-121.3
X62.9Y-112.4
X62.9Y-114.1
X64.1Y-118.2
X64.1Y-119.7
X64.1Y-121.3
X64.1Y-123.0
X64.5Y-126.5
X64.6Y-115.0
X65.5Y-68.4
X65.586Y-65.686
X66.4Y-63.9
X66.7Y-98.0
X67.3Y-62.1
X67.73Y-60.642
X68.3Y-98.0
X68.3Y-126.4
X68.8Y-131.5
X68.8Y-132.9
X69.5Y-120.0
X69.5Y-121.5
X69.6Y-65.3
X69.9Y-98.0
X70.2Y-130.6
X70.2Y-131.9
X70.2Y-133.3
X70.2Y-134.7
X71.5Y-114.9
X71.7Y-130.6
X71.7Y-131.9
X71.7Y-133.3
X71.7Y-134.7
X71.8Y-59.7
X71.8Y-61.3
X73.2Y-130.6
X73.2Y-131.9
X73.2Y-133.3
X73.2Y-134.7
X73.553Y-114.959
X74.3Y-81.15
X74.45Y-71.45
X74.6Y-59.8
X74.601Y-61.4
X74.7Y-130.6
X74.7Y-131.9
X74.7Y-133.3
X74.7Y-134.7
X75.0Y-69.5
X75.1Y-79.45
X76.033Y-74.75
X76.1Y-59.8
X76.75Y-71.95
X76.9Y-61.1
X77.215Y-96.642
X77.5Y-59.8
X77.5Y-62.6
X77.5Y-65.2
X77.5Y-66.5
X77.875Y-67.943
X77.95Y-73.95
X78.3Y-61.1
X78.3Y-63.9
X78.45Y-100.2
X78.85Y-82.475
X79.0Y-59.8
X79.0Y-62.6
X79.0Y-86.3
X79.55Y-88.15
X79.6Y-100.2
X79.8Y-61.1
X79.8Y-63.9
X80.4Y-59.8
X80.4Y-62.6
X80.946Y-133.259
X81.2Y-61.1
X81.2Y-63.9
X81.229Y-114.828
X81.229Y-116.128
X81.229Y-117.428
X81.25Y-78.9
X81.525Y-96.35
X81.525Y-97.95
X81.8Y-59.8
X81.8Y-62.6
X82.25Y-123.3
X82.596Y-114.828
X82.596Y-116.128
X82.596Y-117.428
X82.6Y-61.1
X82.6Y-63.9
X82.815Y-97.95
X82.89Y-96.45
X82.925Y-74.275
X83.2Y-59.8
X83.2Y-62.6
X83.2Y-65.2
X83.2Y-66.5
X83.2Y-67.8
X83.275Y-79.525
X83.962Y-117.428
X84.0Y-61.1
X84.0Y-63.9
X84.246Y-138.2
X84.25Y-137.6
X84.4Y-123.95
X84.4Y-125.25
X84.6Y-59.8
X84.6Y-62.6
X84.65Y-119.25
X84.7Y-65.2
X84.7Y-66.5
X85.212Y-121.902
X85.25Y-80.35
X85.396Y-117.428
X85.4Y-61.1
X85.4Y-63.9
X85.4Y-156.4
X85.812Y-123.678
X85.812Y-124.978
X85.812Y-126.278
X86.1Y-59.8
X86.1Y-62.6
X86.1Y-144.8
X86.15Y-83.9
X86.25Y-119.25
X86.763Y-114.828
X86.763Y-116.128
X86.763Y-117.428
X86.8Y-87.25
X86.9Y-61.1
X86.9Y-63.9
X87.112Y-123.678
X87.112Y-124.978
X87.112Y-126.278
X87.2Y-147.3
X87.5Y-59.8
X87.5Y-62.6
X87.6Y-119.25
X88.129Y-114.828
X88.129Y-116.128
X88.129Y-117.428
X88.2Y-80.15
X88.3Y-61.1
X88.412Y-123.678
X88.412Y-124.978
X88.412Y-126.278
X88.85Y-147.1
X88.9Y-59.8
X88.9Y-75.25
X89.2Y-155.2
X89.35Y-83.65
X89.496Y-116.128
X89.496Y-117.428
X89.496Y-118.828
X89.496Y-120.228
X89.55Y-95.45
X89.6Y-144.8
X89.7Y-123.0
X89.7Y-124.3
X90.1Y-149.1
X90.25Y-78.85
X90.3Y-150.4
X90.5Y-147.9
X91.4Y-149.1
X92.0Y-146.5
X92.2Y-59.64
X92.6Y-60.9
X92.65Y-62.65
X92.7Y-149.1
X93.3Y-145.2
X93.3Y-146.5
X93.7Y-59.64
X94.0Y-149.1
X94.6Y-143.9
X94.6Y-145.2
X94.6Y-146.5
X94.8Y-151.7
X94.8Y-153.1
X94.8Y-154.4
X95.3Y-149.1
X95.35Y-59.64
X95.9Y-143.9
X95.9Y-145.2
X95.9Y-146.5
X96.1Y-151.7
X96.1Y-153.1
X96.1Y-154.4
X96.45Y-112.45
X96.6Y-149.1
X97.0Y-59.64
X97.2Y-143.9
X97.2Y-145.2
X97.2Y-146.5
X97.4Y-77.15
X97.4Y-151.7
X97.4Y-153.1
X97.4Y-154.4
X97.65Y-80.0
X97.7Y-81.7
X97.9Y-149.1
X98.1Y-84.85
X98.2Y-90.1
X98.5Y-143.9
X98.5Y-145.2
X98.5Y-146.5
X98.55Y-59.64
X98.7Y-147.9
X98.8Y-151.7
X98.8Y-153.1
X98.8Y-154.4
X99.5Y-149.2
X99.8Y-119.0
X99.8Y-143.9
X99.8Y-145.2
X99.8Y-146.5
X100.15Y-59.64
X100.2Y-73.75
X100.3Y-153.1
X100.3Y-154.4
X101.1Y-115.8
X101.2Y-145.2
X101.3Y-146.5
X101.8Y-59.64
X101.8Y-153.1
X102.3Y-113.8
X102.9Y-149.2
X103.35Y-59.64
X103.7Y-71.25
X103.7Y-117.1
X103.8Y-81.4
X103.8Y-83.1
X103.9Y-87.0
X103.9Y-88.4
X103.9Y-89.8
X104.0Y-147.9
X104.5Y-149.7
X104.9Y-79.953
X104.95Y-59.64
X105.1Y-81.7
X105.2Y-83.6
X105.3Y-87.0
X105.3Y-88.4
X105.3Y-89.8
X105.3Y-91.1
X105.6Y-130.5
X105.8Y-150.9
X106.3Y-84.7
X106.4Y-59.64
X106.5Y-91.8
X106.6Y-86.0
X106.9Y-152.1
X107.4Y-134.6
X107.7Y-69.9
X107.7Y-99.1
X108.0Y-91.8
X108.1Y-86.0
X108.1Y-153.3
X108.3Y-84.7
X108.5Y-138.0
X108.6Y-97.4
X108.7Y-102.6
X108.8Y-73.9
X108.8Y-112.6
X109.0Y-146.95
X109.0Y-148.65
X109.1Y-150.4
X109.2Y-87.3
X109.2Y-90.7
X109.2Y-93.4
X109.2Y-95.2
X109.2Y-114.8
X109.2Y-116.4
X109.2Y-118.0
X109.2Y-119.6
X109.2Y-121.3
X109.2Y-122.9
X109.2Y-124.5
X109.2Y-126.1
X109.2Y-127.8
X109.2Y-129.5
X109.2Y-131.1
X109.2Y-132.7
X109.3Y-100.925
X109.4Y-154.5
X109.5Y-72.2
X109.5Y-82.0
X109.5Y-83.3
X109.5Y-89.2
X109.6Y-136.4
X109.9Y-68.7
X109.9Y-86.0
X110.0Y-151.75
X110.1Y-97.4
X110.1Y-111.4
X110.1Y-145.4
X110.4Y-67.4
X110.55Y-147.0
X110.6Y-63.8
X110.6Y-92.0
X110.9Y-84.7
X110.9Y-87.3
X110.9Y-89.1
X110.9Y-131.4
X110.9Y-132.7
X111.0Y-148.65
X111.1Y-112.8
X111.156Y-100.925
X111.2Y-93.4
X111.2Y-95.2
X111.3Y-72.2
X111.3Y-82.9
X111.3Y-136.4
X111.4Y-68.7
X111.45Y-64.9
X111.5Y-97.4
X111.5Y-155.5
X111.6Y-151.2
X111.7Y-115.6
X111.7Y-128.9
X111.8Y-119.4
X111.8Y-121.0
X111.8Y-123.5
X111.8Y-125.1
X112.3Y-149.8
X112.4Y-66.0
X112.4Y-98.7
X112.4Y-114.2
X112.4Y-130.3
X112.5Y-87.3
X112.5Y-89.1
X112.5Y-133.0
X112.5Y-134.3
X112.5Y-145.3
X112.6Y-81.6
X112.6Y-109.7
X112.7Y-70.2
X112.7Y-146.7
X112.8Y-111.1
X113.0Y-93.4
X113.0Y-95.2
X113.3Y-155.5
X113.5Y-115.6
X113.5Y-128.9
X113.6Y-96.6
X113.6Y-119.4
X113.6Y-121.0
X113.6Y-123.5
X113.6Y-125.1
X113.9Y-66.25
X113.9Y-84.3
X113.9Y-134.4
X114.1Y-87.3
X114.1Y-89.1
X114.1Y-149.8
X114.2Y-114.2
X114.2Y-130.3
X114.25Y-67.8
X114.3Y-112.2
X114.4Y-82.7
X114.6Y-147.7
X114.8Y-93.4
X114.8Y-95.2
X114.9Y-65.1
X114.9Y-132.4
X115.0Y-97.7
X115.2Y-69.0
X115.3Y-151.2
X115.3Y-155.6
X115.4Y-115.6
X115.4Y-128.9
X115.5Y-119.4
X115.5Y-121.0
X115.5Y-123.5
X115.5Y-125.1
X115.55Y-66.65
X115.8Y-87.5
X115.8Y-89.3
X116.0Y-149.8
X116.1Y-114.2
X116.1Y-130.3
X116.3Y-64.4
X116.4Y-146.1
X116.4Y-147.7
X116.5Y-68.2
X116.5Y-69.8
X116.5Y-93.4
X116.5Y-110.5
X116.5Y-112.1
X116.6Y-81.9
X116.6Y-83.5
X116.6Y-96.8
X116.6Y-98.4
X116.7Y-132.4
X116.7Y-134.0
X116.9Y-156.4
X117.0Y-95.2
X117.1Y-116.4
X117.1Y-118.3
X117.1Y-120.1
X117.1Y-124.4
X117.1Y-126.2
X117.1Y-128.1
X117.1Y-154.7
X117.15Y-151.337
X117.2Y-66.9
X117.4Y-86.4
X117.4Y-148.9
X117.5Y-63.4
X117.5Y-91.0
X117.5Y-113.3
X117.5Y-131.2
X117.6Y-87.9
X117.6Y-89.3
X117.6Y-92.5
X117.9Y-153.2
X118.3Y-64.9
X118.55Y-155.05
X118.6Y-156.6
X118.9Y-95.6
X118.9Y-115.5
X118.9Y-129.0
X118.9Y-151.1
X119.0Y-66.9
X119.0Y-84.8
X119.0Y-86.4
X119.0Y-93.4
X119.0Y-113.4
X119.0Y-131.1
X119.0Y-149.0
X119.1Y-119.6
X119.1Y-121.0
X119.1Y-123.5
X119.1Y-124.9
X119.3Y-87.9
X119.3Y-89.3
X120.1Y-155.2
X120.1Y-156.6
X120.162Y-64.94
X120.3Y-146.1
X120.3Y-147.5
X120.303Y-150.5
X120.4Y-95.6
X120.4Y-97.1
X120.4Y-98.5
X120.4Y-110.5
X120.4Y-111.9
X120.4Y-113.4
X120.4Y-115.5
X120.4Y-129.0
X120.4Y-131.1
X120.4Y-132.5
X120.4Y-133.9
X120.4Y-149.0
X120.5Y-66.9
X120.5Y-68.4
X120.5Y-69.8
X120.5Y-81.9
X120.5Y-83.3
X120.5Y-84.8
X120.5Y-86.4
X120.5Y-93.4
X120.6Y-119.6
X120.6Y-121.0
X120.6Y-123.5
X120.6Y-124.9
X120.9Y-87.9
X120.9Y-89.3
X121.8Y-65.0
X121.9Y-115.5
X121.9Y-129.0
X121.9Y-151.1
X121.9Y-154.9
X122.1Y-119.6
X122.1Y-121.0
X122.1Y-123.5
X122.1Y-124.9
X122.2Y-77.9
X122.2Y-106.6
X122.2Y-142.1
X122.3Y-73.7
X122.3Y-93.4
X122.3Y-102.4
X122.3Y-137.9
X122.4Y-89.3
X122.4Y-95.6
X123.8Y-63.6
X124.4Y-80.1
X124.4Y-108.8
X124.4Y-144.3
X124.5Y-71.5
X124.5Y-100.2
X124.5Y-135.7
X126.3Y-81.9
X126.3Y-110.6
X126.3Y-146.1
X126.4Y-69.7
X126.4Y-98.4
X126.4Y-133.9
X128.4Y-69.2
X128.5Y-82.3
X128.5Y-98.0
X128.5Y-133.4
X128.6Y-111.0
X128.6Y-146.5
X130.3Y-69.2
X130.4Y-82.3
X130.4Y-98.0
X130.4Y-133.4
X130.5Y-111.0
X130.5Y-146.5
X132.2Y-69.2
X132.3Y-82.3
X132.3Y-98.0
X132.3Y-133.4
X132.4Y-111.0
X132.4Y-146.5
X134.0Y-81.4
X134.0Y-83.1
X134.0Y-110.1
X134.0Y-111.8
X134.0Y-145.6
X134.0Y-147.3
X134.1Y-68.5
X134.1Y-70.2
X134.1Y-97.2
X134.1Y-98.9
X134.1Y-132.7
X134.1Y-134.4
X135.6Y-69.4
X135.6Y-82.2
X135.6Y-110.9
X135.6Y-146.4
X135.7Y-98.1
X135.7Y-133.6
T4
X51.4Y-62.0
X51.4Y-154.397
X52.103Y-60.303
X52.103Y-63.697
X52.103Y-152.7
X52.103Y-156.094
X53.8Y-59.6
X53.8Y-64.4
X53.8Y-151.997
X53.8Y-156.797
X55.497Y-60.303
X55.497Y-63.697
X55.497Y-152.7
X55.497Y-156.094
X56.2Y-62.0
X56.2Y-154.397
X143.803Y-62.0
X143.803Y-154.397
X144.506Y-60.303
X144.506Y-63.697
X144.506Y-152.7
X144.506Y-156.094
X146.203Y-59.6
X146.203Y-64.4
X146.203Y-151.997
X146.203Y-156.797
X147.9Y-60.303
X147.9Y-63.697
X147.9Y-152.7
X147.9Y-156.094
X148.603Y-62.0
X148.603Y-154.397
T6
X63.65Y-79.2
X63.65Y-81.74
X63.65Y-84.28
T7
X52.8Y-92.035
X52.8Y-94.575
X56.4Y-92.035
X56.4Y-94.575
X69.2Y-112.4
X71.74Y-112.4
X75.37Y-93.15
X76.8Y-123.2
X76.8Y-125.74
X77.91Y-93.15
X80.45Y-93.15
X82.99Y-93.15
X84.662Y-112.488
X84.662Y-115.028
X85.53Y-93.15
X87.35Y-102.76
X87.35Y-105.3
X97.52Y-65.75
X98.1Y-95.22
X98.1Y-97.76
X98.1Y-100.3
X98.1Y-102.84
X98.1Y-105.38
X98.1Y-107.92
X100.06Y-65.75
X101.2Y-148.6
X101.2Y-151.14
X102.6Y-65.75
X102.7Y-62.05
X105.14Y-65.75
X105.24Y-62.05
X107.78Y-62.05
T8
X54.8Y-133.6
X54.8Y-138.6
X143.473Y-68.3
X143.473Y-73.3
X143.473Y-79.769
X143.473Y-84.769
X143.473Y-95.487
X143.473Y-100.487
X143.473Y-108.487
X143.473Y-113.487
X143.473Y-130.987
X143.473Y-135.987
X143.473Y-142.7
X143.473Y-147.7
T9
X53.8Y-62.0
X53.8Y-154.397
X146.203Y-62.0
X146.203Y-154.397
T5
G00X53.3Y-103.417
M15
G01X52.5Y-103.417
M16
G05
G00X53.3Y-112.057
M15
G01X52.5Y-112.057
M16
G05
G00X57.63Y-103.417
M15
G01X56.53Y-103.417
M16
G05
G00X57.63Y-112.057
M15
G01X56.53Y-112.057
M16
G05
M30
